<svg xmlns="http://www.w3.org/2000/svg" viewBox="0 0 246.78 497.95"><defs><style>.cls-1{opacity:0.37;}.cls-2{fill:#fff;opacity:0.33;}</style></defs><g id="Layer_2" data-name="Layer 2"><g id="Layer_6" data-name="Layer 6"><g class="cls-1"><path class="cls-2" d="M26.71,452.67a13.11,13.11,0,0,1-2-3c1.09,2.9,2.7,5.56,5.87,7.19a21,21,0,0,1-3.09-3.25A8.81,8.81,0,0,0,30,455.28c.19.51.39,1,.61,1.54-.18-.49-.34-1-.5-1.49l.1.05-.08-.2-.09,0c-.11-.34-.21-.69-.31-1a38.36,38.36,0,0,1-2.2-9.84,39.73,39.73,0,0,0,2.39,10.82,10.44,10.44,0,0,1-2.69-1.86,25.4,25.4,0,0,1-2.35-3.9A13,13,0,0,0,26.71,452.67Z"/><path class="cls-2" d="M30.33,425.92A45.32,45.32,0,0,1,38.9,411.2a73.81,73.81,0,0,1,10.35-10.63,38.18,38.18,0,0,1,5.09-5.08,32,32,0,0,1,33.12-4c-6.88-3.49-15-3.76-22.55-1.63a34.31,34.31,0,0,0-12.67,7,69.68,69.68,0,0,0-4.94,5C37.45,410.48,30,422,28,434.27A44,44,0,0,1,30.33,425.92Z"/><path class="cls-2" d="M21.68,439.94c-.07-.15-.15-.29-.23-.44.17.47.33.95.47,1.44.32,1.23.66,2.46,1.06,3.68a32.9,32.9,0,0,0,1.76,5c-.28-.76-.54-1.53-.76-2.31.27.68.58,1.35.9,2-1.69-4.39-1.85-9.71-4.34-12.53.36.81.65,1.71,1,2.46C21.57,439.49,21.63,439.71,21.68,439.94Z"/><path class="cls-2" d="M45.2,465.37c-.82.51-4.51,1.08-1.92,2.31,2.73,1.68,6,1.69,9.21,1a14.32,14.32,0,0,1-8.39-1.49,2.13,2.13,0,0,0,.7-3.25c-9-8-14-17.93-13-29.27a2,2,0,0,1,0-.23C30.27,446.4,36.93,457,45.2,465.37Z"/><path class="cls-2" d="M69,450.77c2.81.6,2.66,4.07,1.4,7.1a25.34,25.34,0,0,0,1.87-5.31,10.65,10.65,0,0,0-.53-4.6,2,2,0,0,0-.15-.39,3.4,3.4,0,0,0-2.44-.85c-3.08,1.89-5.77,3.86-8.94,4.3C63.31,450.7,66.35,450.2,69,450.77Z"/><path class="cls-2" d="M44.62,414.11c-.82.6-1.61,1.23-2.38,1.88,5.5-4.18,12.51-7,19.37-9.28A51.24,51.24,0,0,0,44.62,414.11Z"/><path class="cls-2" d="M67,460.36l-.1.15a17.21,17.21,0,0,1-4.76,5.23C64.72,464.24,66.52,462.41,67,460.36Z"/><path class="cls-2" d="M72,403.55a12.72,12.72,0,0,0-5.16,1.54c-1.71.51-3.47,1.05-5.24,1.62,1.43-.35,2.87-.67,4.31-.93,1.54-.56,2.93-1.09,4.35-1.45a16.67,16.67,0,0,1,5.17-.47A11.59,11.59,0,0,0,72,403.55Z"/><path class="cls-2" d="M62.18,465.74c-4.54,2.66-11.43,4.22-17.64,3.95C50.94,470.39,57.41,469.2,62.18,465.74Z"/><path class="cls-2" d="M44.62,414.11a49,49,0,0,1,18.16-8.17c2.31-.77,4.11-1.56,5.83-2.2a19.81,19.81,0,0,1,11.2-.83c8,1.7,8.13,10.64,13.49,14.76,2,.42,3.39-1.26,4.79-2.94,2.82-8.31-.74-16-8.1-20.54-10.14-6.12-21.49-6.57-30.86-1.64a39.88,39.88,0,0,0-5.92,4.2c-1.77,1.53-3.33,3.17-5,4.95a68.58,68.58,0,0,0-7.72,7.8,47.2,47.2,0,0,1,7.46-6.31c2-1.71,3.57-3.25,5.23-4.63A33.7,33.7,0,0,1,84.22,392c8.76,2.86,18.48,15.82,10.3,20C91.13,413.24,86,403.23,79,401.75a21.57,21.57,0,0,0-11.3,1.51c-1.72.71-3.51,1.55-5.8,2.4A45.09,45.09,0,0,0,38.6,419.2a24,24,0,0,0-5.31,8.23,28.51,28.51,0,0,0-1.92,5.79,27.21,27.21,0,0,1,1.79-5.43,23.51,23.51,0,0,0-1.36,6.64,27.58,27.58,0,0,1,4.55-12.12l0-.05c.29-.43.62-.84.93-1.25a38.22,38.22,0,0,1,4.92-5c-.38.29-.75.58-1.11.88A34.69,34.69,0,0,1,44.62,414.11Z"/><path class="cls-2" d="M90.91,419.14c2.38,3.47,9-3,9-8,0-.14,0-.26,0-.4C98.63,416.38,93.54,422,90.91,419.14Z"/><path class="cls-2" d="M83.18,406.6a15,15,0,0,0-7.74-2.74c5.67,1.33,10.48,6.67,13.73,12.09C87.74,412.92,86.35,409.43,83.18,406.6Z"/><path class="cls-2" d="M60.19,451h0Z"/><path class="cls-2" d="M60.17,451h0Z"/><path class="cls-2" d="M67.79,453.22a8.6,8.6,0,0,0-6.28-.42l.6.29c3.31.07,7,.42,5.39,4.82-.1.25-.23.49-.34.73a5,5,0,0,1-.12,1.72C68.16,458.51,70.17,455.05,67.79,453.22Z"/><path class="cls-2" d="M98.79,404a24.45,24.45,0,0,0-3.87-6.64A44.34,44.34,0,0,1,98.79,404Z"/><path class="cls-2" d="M67.16,458.64a5.88,5.88,0,0,0-.75-2.32,10.8,10.8,0,0,0-4.3-3.23l-1.43,0a8,8,0,0,1,.83-.26c-1.18-.55-2.47-1.06-3.8-1.6.55,0,1.11-.05,1.66-.1a10.18,10.18,0,0,1-2.42-.2h-.09a14.31,14.31,0,0,1-4.38-1.1l.18.12a14.54,14.54,0,0,1-6.55-5.37,13.71,13.71,0,0,1-1.34-1.77,21.82,21.82,0,0,0,4,5.72,10.44,10.44,0,0,0,5.8,2.58c3.66,2.11,7.63,3.93,11,5.75,2.59,1.24-1.39,6.5-5.5,9a34.62,34.62,0,0,1-7.6,2.83C58.67,468,64.72,463.92,67.16,458.64Z"/><path class="cls-2" d="M79.39,409.75c3.37,2.29,3.82,7.31,5.35,10.87a4.43,4.43,0,0,1-.21-.87c-.28-6-3.7-11-8.67-12.15a11,11,0,0,0-5,.09,19.77,19.77,0,0,1,2.84-.09A10.1,10.1,0,0,1,79.39,409.75Z"/><path class="cls-2" d="M94.08,423.77c9.18-4,9.21-13.87,6.64-21.35-4-9.39-13.65-14.53-24.45-15.32,8.28,1.2,16,4.14,21.28,10.69,5,6,5.92,16.11,1.52,22.1-3.45,3.54-11.2,5.41-13.75,1.92C86.73,424.24,89.05,425.52,94.08,423.77Z"/><path class="cls-2" d="M47.73,399.89c-1.26,1.55-2.92,3.28-4.67,5.24-5.61,6.3-10.41,12.06-13.44,19.57,4.13-9.31,11.39-16.59,18-24.4a40.24,40.24,0,0,1,4.06-4.4,35.73,35.73,0,0,1,4.8-3.77A35.68,35.68,0,0,0,47.73,399.89Z"/><path class="cls-2" d="M85.32,421.81a12,12,0,0,1-.58-1.19A4.39,4.39,0,0,0,85.32,421.81Z"/><path class="cls-2" d="M32.16,436.08c0-.1,0-.2,0-.3C32.18,435.88,32.16,436,32.16,436.08Z"/><path class="cls-2" d="M32.18,435.78c0-.21,0-.41.07-.61C32.22,435.37,32.21,435.57,32.18,435.78Z"/><path class="cls-2" d="M37.28,422.26c-.05.06-.09.13-.14.2.12-.17.26-.33.39-.49Z"/><path class="cls-2" d="M37,422.71l.17-.25Z"/><path class="cls-2" d="M56.45,392.13A34.11,34.11,0,0,1,74.88,387c.46,0,.93.06,1.39.1-.79-.12-1.59-.22-2.39-.31A32.07,32.07,0,0,0,56.45,392.13Z"/><path class="cls-2" d="M57.7,463.57a7.14,7.14,0,0,1-.74.24A5.31,5.31,0,0,0,57.7,463.57Z"/><path class="cls-2" d="M82.12,459.79c-.77,3.22-1.74,6.4-2.8,9.45A65,65,0,0,0,82.12,459.79Z"/><path class="cls-2" d="M70.37,407.79l.49-.1c-1.22.11-2.53.29-4,.5-11.09.88-22.77,5.07-29.32,13.78C45.37,412.32,58.08,409,70.37,407.79Z"/><path class="cls-2" d="M58.56,463.17a6.06,6.06,0,0,1-.86.4A4.56,4.56,0,0,0,58.56,463.17Z"/><path class="cls-2" d="M33.57,429.61a25.37,25.37,0,0,1,3.4-6.9,26.59,26.59,0,0,0-4.72,12.46A26.09,26.09,0,0,1,33.57,429.61Z"/><path class="cls-2" d="M58.86,463l-.24.15Z"/><path class="cls-2" d="M58.62,463.14l-.06,0Z"/><path class="cls-2" d="M6.58,452.37l.12-.1c0-.27,0-.54-.07-.8C6.61,451.77,6.59,452.08,6.58,452.37Z"/><path class="cls-2" d="M80.2,434.24a1.71,1.71,0,0,0-.13-.23A1.71,1.71,0,0,1,80.2,434.24Z"/><path class="cls-2" d="M60.27,421.09l-.09,0-.78,0C59.69,421.05,60,421.08,60.27,421.09Z"/><path class="cls-2" d="M83.91,461a8.1,8.1,0,0,0,.26-.79C84.08,460.47,84,460.74,83.91,461Z"/><path class="cls-2" d="M84.83,472.7c0,.05,0,.09.07.14a22.79,22.79,0,0,1-1.6-5.22A15,15,0,0,0,84.83,472.7Z"/><path class="cls-2" d="M27.53,444.27l-.06-.72Z"/><path class="cls-2" d="M59.37,451.1l.8-.07Z"/><path class="cls-2" d="M83.16,466.45a36.51,36.51,0,0,1,.6-4.93A12.87,12.87,0,0,0,83.16,466.45Z"/><path class="cls-2" d="M88.41,391.87c-.32-.15-.63-.27-1-.41a25.48,25.48,0,0,1,6.24,4.47A18.34,18.34,0,0,0,88.41,391.87Z"/><path class="cls-2" d="M99.91,406.21,98.79,404a18.17,18.17,0,0,1,1.1,6.72A9.34,9.34,0,0,0,99.91,406.21Z"/><path class="cls-2" d="M90.91,419.14c-.51-1.05-1.1-2.12-1.74-3.19A23.49,23.49,0,0,0,90.91,419.14Z"/><path class="cls-2" d="M93.9,396.14c.36.42.69.84,1,1.26Q94.44,396.76,93.9,396.14Z"/><path class="cls-2" d="M35.93,452.12a28.18,28.18,0,0,1-3.77-16A26.25,26.25,0,0,0,35.93,452.12Z"/><path class="cls-2" d="M27.47,443.55a41.07,41.07,0,0,1,.51-9.28A38.82,38.82,0,0,0,27.47,443.55Z"/><path class="cls-2" d="M27.47,443.55Z"/><path class="cls-2" d="M93.77,396l-.07-.06.2.21Z"/><path class="cls-2" d="M83.79,461.31c0,.07,0,.13,0,.21l.15-.52C83.87,461.1,83.84,461.21,83.79,461.31Z"/><path class="cls-2" d="M12.1,438.29c.31-.36.63-.7,1-1A9.69,9.69,0,0,0,12.1,438.29Z"/><path class="cls-2" d="M16.19,437.45a.39.39,0,0,1,0-.18A.25.25,0,0,0,16.19,437.45Z"/><path class="cls-2" d="M20.29,438.32a2.86,2.86,0,0,0-1.23-.94,19.3,19.3,0,0,1,1.85,3.52C20.69,440,20.49,439.16,20.29,438.32Z"/><path class="cls-2" d="M38.9,411.2a57.48,57.48,0,0,0-8.57,14.72c-.4,1.16-.76,2.33-1.07,3.52A56.61,56.61,0,0,1,40.45,409.5C39.91,410.06,39.4,410.63,38.9,411.2Z"/><path class="cls-2" d="M20.91,440.9A45.91,45.91,0,0,0,24.39,451C23.1,447.73,22.25,444.11,20.91,440.9Z"/><path class="cls-2" d="M29.26,429.44a36.74,36.74,0,0,0-.82,19.11A45.48,45.48,0,0,1,29.26,429.44Z"/><path class="cls-2" d="M28.44,448.55a48,48,0,0,0,1.29,5.56c.13.35.26.71.4,1.07.25.12.49.25.76.35A34.58,34.58,0,0,1,28.44,448.55Z"/><path class="cls-2" d="M18.65,444.87a75.77,75.77,0,0,0-2.46-7.42C17.07,439.89,17.85,442.39,18.65,444.87Z"/><path class="cls-2" d="M32.79,460c-.16-.35-.31-.7-.46-1.05A16.89,16.89,0,0,1,24.39,451C26,455,28.18,458.39,32.79,460Z"/><path class="cls-2" d="M67.5,393.89a55.16,55.16,0,0,1,9-.5A22.08,22.08,0,0,0,67.5,393.89Z"/><path class="cls-2" d="M23.71,457.15a63.45,63.45,0,0,1-5.06-12.28c.83,2.88,1.62,5.7,2.67,8.36-.43-.7-.87-1.39-1.32-2.06a53.74,53.74,0,0,0,3.31,6.19l0,0,0,.06q.84,1.32,1.77,2.55A20.13,20.13,0,0,0,27,462.05c-.6-.77-1.17-1.58-1.72-2.4l.08.08c-.18-.24-.34-.5-.51-.74C24.47,458.38,24.09,457.77,23.71,457.15Z"/><path class="cls-2" d="M19.06,437.38h0c-1-1.47-3-.84-2.91-.11C16.2,436.85,17.79,436.82,19.06,437.38Z"/><path class="cls-2" d="M51.06,403.83c2-1.5,3.75-2.85,5.27-4.09a29.35,29.35,0,0,1,11.17-5.85l-1.41.15a32.54,32.54,0,0,0-10.32,5.09c-1.47,1.11-2.82,2.34-4.5,3.66-19.92,11.82-28,35.33-18.94,56.17.42.19.83.38,1.28.54C22.88,439.55,31,414.81,51.06,403.83Z"/><path class="cls-2" d="M71.74,398A22,22,0,0,0,61.49,401,82.17,82.17,0,0,1,71.74,398Z"/><path class="cls-2" d="M83.42,395.76c-3.94.7-7.86,1.41-11.68,2.27a75.77,75.77,0,0,1,9.08.14,9.65,9.65,0,0,1-5.18-.11c4,.85,8,1.7,11.35.44-2.51-3.68-6.43-4.88-10.51-5.11A21.26,21.26,0,0,1,83.42,395.76Z"/><path class="cls-2" d="M69.13,460.3l.2-.34c-.13.2-.26.39-.4.57C69,460.45,69.07,460.38,69.13,460.3Z"/><path class="cls-2" d="M57.48,420.89l.4-.06-.92.08Z"/><path class="cls-2" d="M56.14,420.85c-.26.06-.52.14-.77.21.45-.11.9-.21,1.36-.29C56.53,420.8,56.34,420.81,56.14,420.85Z"/><path class="cls-2" d="M45.59,428a16.65,16.65,0,0,1,6.66-5.29,15.63,15.63,0,0,1,3.07-1.3c.64-.1,1.28-.17,1.91-.22s1.07-.17,1.61-.22c-.45,0-.91,0-1.36,0A16.7,16.7,0,0,0,45.59,428Z"/><path class="cls-2" d="M43.66,432.33a13,13,0,0,1,.59-1.76A13.75,13.75,0,0,1,45.59,428a13.63,13.63,0,0,0-1.86,3.57,16.86,16.86,0,0,0-.58,3.42A16.43,16.43,0,0,1,43.66,432.33Z"/><path class="cls-2" d="M68.17,461.45a7.92,7.92,0,0,0,.76-.92c-.28.35-.57.69-.87,1Z"/><path class="cls-2" d="M56.73,420.77c.43-.06.86-.13,1.29-.17C57.59,420.64,57.16,420.7,56.73,420.77Z"/><path class="cls-2" d="M44.25,430.57a11.92,11.92,0,0,0-.44,1.23c-.06.18-.1.35-.15.53a15.16,15.16,0,0,0-.41,2.07,16.26,16.26,0,0,0,1,7.19,14,14,0,0,0,1.64,2.58,15.81,15.81,0,0,1-2.22-11.72,17.26,17.26,0,0,1,2.23-4.19c.17-.26.36-.49.54-.73l.36-.47a15.7,15.7,0,0,1,2.51-2.45,19.54,19.54,0,0,1,2.12-1.52A15,15,0,0,0,44.25,430.57Z"/><path class="cls-2" d="M52.25,422.66c-.27.14-.55.27-.82.43a20.09,20.09,0,0,1,6.07-1.95c.64-.06,1.27-.08,1.9-.09-.72,0-1.44,0-2.17.09A20.4,20.4,0,0,0,52.25,422.66Z"/><path class="cls-2" d="M43.16,438c0,.28.05.57.08.85a11.69,11.69,0,0,0,1.53,4c-.18-.39-.36-.78-.52-1.18A12,12,0,0,1,43.16,438Z"/><path class="cls-2" d="M70.42,457.87c-.38.8-.75,1.5-1.09,2.09A13.75,13.75,0,0,0,70.42,457.87Z"/><path class="cls-2" d="M43.16,438a21.76,21.76,0,0,1,0-3A12.69,12.69,0,0,0,43.16,438Z"/><path class="cls-2" d="M54.54,454.56a14.76,14.76,0,0,1-1.61-.45l-.41-.13a32,32,0,0,0,7.74,4.23c.38.34.74.67,1.1,1-.75,1.57-1.26,2.89-2.5,3.76a5.64,5.64,0,0,0,2.73-3.48c1.3,1.85-4.48,6.35-8.32,4.87a26.85,26.85,0,0,1-17.34-12.26,30.88,30.88,0,0,0,15,13.12c5.19,2.47,9.57-1.35,12.45-4.81.28-1.3,0-3.39-1.22-4.33a30.41,30.41,0,0,0-6-1.23c.12.1.24.2.37.29C55.89,454.94,55.22,454.75,54.54,454.56Zm7,4.24,0-.13.08,0A1.17,1.17,0,0,1,61.57,458.8Z"/><path class="cls-2" d="M59.33,420.54h0Z"/><path class="cls-2" d="M43.73,431.52a13.43,13.43,0,0,1,1.3-3.14,16.19,16.19,0,0,1,3.31-3.75c.35-.29.69-.57,1.06-.82v0A16.35,16.35,0,0,1,57,420.91c-.23,0-.45,0-.67.06.4-.08.8-.15,1.2-.2a19.54,19.54,0,0,0-2.26.33l.14,0-.2.05-.54.1-.07,0a14.88,14.88,0,0,0-1.94.58,18.8,18.8,0,0,1,10-1.15c-.89-.16-1.81-.29-2.77-.38-10.52-.89-18.2,8.34-18.09,17.87a9.67,9.67,0,0,1-.59-3.8c2.7-9,11.33-16.55,21.39-15.42a17.51,17.51,0,0,1,6.76,1.64l-.86-.49a40.71,40.71,0,0,1,13.49,10.35c-5.37-8.94-16-13.48-25.79-12.31a22.28,22.28,0,0,0-10.39,4.59c-5.07,3.67-8.5,9.73-7.16,16.8.58,3.5.63,9.49,2.84,13.37a29,29,0,0,1-3.64-11.22c.17,2.49.53,5,.91,7.38.33,2.63,2.39,5.1,5.27,6.69a8.48,8.48,0,0,1-2-1.91c-.16-.27-.3-.54-.45-.8a6.88,6.88,0,0,0,7,3.55A16.85,16.85,0,0,0,46.28,453c.87,1.06,1.79,2.07,2.73,3-1.58-2.85-4-5-5.85-7.52a31,31,0,0,0,2,3.09A20.64,20.64,0,0,1,42,446.61a9.7,9.7,0,0,1-1.11-4.56,6.36,6.36,0,0,1,1.35,2.27,7,7,0,0,1,.59.81,2.2,2.2,0,0,1-.31-.15,3.54,3.54,0,0,0,1.12,1.45,2.81,2.81,0,0,0,1.74,1.33c-.22-.94-.47-1.87-.73-2.8a25.28,25.28,0,0,0,6.51,8,16.42,16.42,0,0,0,2.26.61,41.38,41.38,0,0,1-7.47-7.5,16.33,16.33,0,0,1-1.63-2.75c-.12-.25-.23-.51-.34-.77l0-.06c.11.28.23.56.36.83A19,19,0,0,0,46,446.05c2.11,2.86,5,5.07,7.47,7.5l-2-.43c-.07-.07-.15-.12-.22-.18a6.52,6.52,0,0,1-1.7-.91,8.2,8.2,0,0,0,1.14.92l-1.28-.27a16.34,16.34,0,0,0,3.18,1.3l-.07-.05.48.18,1.61.45c.54.12,1.09.23,1.64.31-5.29-4.07-10.86-8-12.71-14.45a.69.69,0,0,0,0,.13c-.11-.45-.21-.9-.29-1.34a11.81,11.81,0,0,0,.27,1.21c-.1-.54-.17-1.07-.23-1.61A14,14,0,0,1,43,435.7,13.83,13.83,0,0,1,43.73,431.52Zm.49-1.67a19.87,19.87,0,0,0-.95,2.78,16.11,16.11,0,0,1,.93-2.77c.1-.21.2-.42.31-.62C44.42,429.44,44.31,429.64,44.22,429.85Zm4.62-5.7a16.44,16.44,0,0,0-1.3,1c.21-.2.43-.41.66-.6a16.65,16.65,0,0,1,2.46-1.67A15.67,15.67,0,0,0,48.84,424.15Zm-1.69,1.42.28-.28Zm-2.79,3.63a1.33,1.33,0,0,1,.14-.19,12.51,12.51,0,0,0-1.12,2.69c-.12.33-.24.66-.34,1A11.93,11.93,0,0,1,44.36,429.2ZM42.79,436c0-.23,0-.45.05-.67,0,.34,0,.68,0,1,0,.57.08,1.12.15,1.66A20.21,20.21,0,0,1,42.79,436Z"/><path class="cls-2" d="M58,420.6l.81-.05Z"/><path class="cls-2" d="M9.81,440.32a17,17,0,0,0-3.18,11.15A28.54,28.54,0,0,1,9.81,440.32Z"/><path class="cls-2" d="M13.56,444.22a.8.8,0,0,1,.42.23,13.39,13.39,0,0,1,1.11.88c-.14-.24-.29-.49-.42-.74A.84.84,0,0,0,13.56,444.22Z"/><path class="cls-2" d="M69.17,446.72a1.73,1.73,0,0,1,2.44.85c1.07,1,1.12,2.92.68,5C72,456,70.13,459.24,68,462.1a17.42,17.42,0,0,0,4.56-14.65c-.41-1.44-1-2.24-2.46-1.88-4.42,2.32-9.29,5.19-14.07,5l.86.35C61.81,451.23,65.5,447.29,69.17,446.72Z"/><path class="cls-2" d="M15.09,445.33a89.47,89.47,0,0,0,6.62,10,63.26,63.26,0,0,1-3.41-6.59A23.86,23.86,0,0,0,15.09,445.33Z"/><path class="cls-2" d="M117.67,490.36c-8.08,7.78-19,8.84-29.66,5.21A32.22,32.22,0,0,1,73.82,485c-.21-.26-.39-.54-.59-.8a32.05,32.05,0,0,0,2.54,3.17c7.6,8.31,19.83,12.81,31.23,9.58a23.74,23.74,0,0,0,17-19.45,13.81,13.81,0,0,0-1.09-7.35c.11.35.21.71.29,1.06A22.28,22.28,0,0,1,117.67,490.36Z"/><path class="cls-2" d="M38.46,469.41a29.38,29.38,0,0,0,20.41-1,28.73,28.73,0,0,0,9.19-6.9,28.35,28.35,0,0,1-28.74,8c-.65-.17-1.25-.37-1.85-.58a30.44,30.44,0,0,1-4.12-2.31,26.22,26.22,0,0,0,4.74,1.95,24.24,24.24,0,0,0,6.45,1.08,32.3,32.3,0,0,1-12.95-4.28,45.41,45.41,0,0,1-6.21-5.68,23.93,23.93,0,0,0,3.92,4.21A20.62,20.62,0,0,1,27,462.05c.26.35.53.68.81,1a29.1,29.1,0,0,1-2.7-3.06,24.21,24.21,0,0,1-1.77-2.55l-.05-.09c-.55-.65-1.08-1.32-1.6-2a35.64,35.64,0,0,0,6.72,8.4,19.37,19.37,0,0,0,10.75,6.44,28.86,28.86,0,0,0,5.21.9A25.65,25.65,0,0,1,38.46,469.41Z"/><path class="cls-2" d="M14.46,436c.35-.3.72-.59,1.09-.87.31-.07.63-.12.95-.18h.09a14,14,0,0,0-2.13,1c-.48.42-1,.84-1.39,1.29,1.48-1.39,3.18-2.08,4.9-1.46a7.83,7.83,0,0,1,3.48,3.71,18.65,18.65,0,0,0-1.51-3.3,4.86,4.86,0,0,1,.6.6,3.61,3.61,0,0,0-1.83-2.14l.22,0a2.06,2.06,0,0,1,1.31.29,4.47,4.47,0,0,0-.83-.85,11.52,11.52,0,0,0-4-.09,22.09,22.09,0,0,0-4.68,3.09,14.5,14.5,0,0,1,3.49-1.61,11.44,11.44,0,0,0-4.37,4.85A15.81,15.81,0,0,1,14.46,436Z"/><path class="cls-2" d="M13.29,444.2a9,9,0,0,1,2.47-1.41c.8,2,1.63,4,2.54,6,.59.77,1.16,1.57,1.7,2.4-1.44-3.15-2.7-6.44-4-9.68-3.15,1.37-4.52,4.47-7.67,5.83a17.76,17.76,0,0,1,3.73-9,19.07,19.07,0,0,0-4.88,13.52,5.53,5.53,0,0,1-.52.46A14.06,14.06,0,0,0,7,453.82c.74-1.22,1.57-2.88,2.42-4.47l.42-.7-.18.24C10.94,446.5,12.25,444.36,13.29,444.2Z"/><path class="cls-2" d="M9.83,448.65c1.44-2,2.72-4,3.73-4.43a.82.82,0,0,0-.27,0A16.06,16.06,0,0,0,9.83,448.65Z"/><path class="cls-2" d="M49.31,424.61a19.39,19.39,0,0,0-2.51,2.45l-.36.47-.54.73a15.41,15.41,0,0,0-1,1.74,15.09,15.09,0,0,0,1.23,14.49l-.25-.32c.08.12.14.25.22.37l.17.18a14.2,14.2,0,0,0,6.2,5.07l-.29-.18A11.67,11.67,0,0,1,49.63,448a14.88,14.88,0,0,1-1.4-1.35,18.55,18.55,0,0,1-1.42-1.38c.27.26.56.51.85.75-3.88-4.64-4.91-11.25-1.93-16.51a13.67,13.67,0,0,1,4.76-5.72C50.09,424,49.7,424.32,49.31,424.61Z"/><path class="cls-2" d="M52.19,449.61a10.39,10.39,0,0,0,3.87.93,31.93,31.93,0,0,1-8.4-4.54q.27.33.57.63A32,32,0,0,0,52.19,449.61Z"/><path class="cls-2" d="M79.57,433.13c.17.29.34.58.5.88C79.91,433.71,79.75,433.42,79.57,433.13Z"/><path class="cls-2" d="M69.22,423.33h0l.26.12Z"/><path class="cls-2" d="M72.44,425.28a26.11,26.11,0,0,1,3,2.21,23.88,23.88,0,0,0-5.95-4c.21.11.4.24.6.36-.35-.19-.69-.39-1-.56a25.49,25.49,0,0,0-3-1.07l.48.19a32.51,32.51,0,0,1,5.06,2.38,16.6,16.6,0,0,1,1.35,1,27.92,27.92,0,0,1,6.64,7.33A25.45,25.45,0,0,0,72.44,425.28Z"/><path class="cls-2" d="M69.51,423.47l-.06,0Z"/><path class="cls-2" d="M122.91,470.1a19.5,19.5,0,0,0-14.52-12.87,44.18,44.18,0,0,0-5.27-.58C110.91,459.38,119.76,463.15,122.91,470.1Z"/><path class="cls-2" d="M50.49,423.77a17.69,17.69,0,0,1,8.63-2.61A15.88,15.88,0,0,0,50.49,423.77Z"/><path class="cls-2" d="M58.87,468.46a28.37,28.37,0,0,1-14.48,2.64,25,25,0,0,0,9.68-.44,30.31,30.31,0,0,0,14-8.56A27.07,27.07,0,0,1,58.87,468.46Z"/><path class="cls-2" d="M83.16,466.45c0,.09,0,.18,0,.26,0,.31.1.61.15.91,0-.17,0-.34-.07-.52S83.19,466.67,83.16,466.45Z"/><path class="cls-2" d="M80.55,483.8a24.1,24.1,0,0,0,15,6.58c.6-.05,1.24-.12,1.89-.2C91.62,490.33,85,487.66,80.55,483.8Z"/><path class="cls-2" d="M78.33,481.48c-.27-.34-.52-.68-.77-1C77.8,480.81,78.06,481.15,78.33,481.48Z"/><path class="cls-2" d="M76.28,476.64l-.47,1.11a27,27,0,0,0,1.75,2.7,7.22,7.22,0,0,1-.77-1.52,24.74,24.74,0,0,0,2.65,3.26c5.72,6.66,19,11.52,25.68,3.45-8.23-1.31-16.68-5.94-20.22-12.8a28.24,28.24,0,0,0,16.25,14.67c-8.76,4.24-18.17-1.85-23.88-8.5a4.29,4.29,0,0,1-.86-1.72c0-.13,0-.26,0-.39l0,.11A2.2,2.2,0,0,1,76.28,476.64Z"/><path class="cls-2" d="M80.55,483.8c-.68-.64-1.34-1.3-2-2l-.27-.32c.15.18.28.38.43.57A21.22,21.22,0,0,0,80.55,483.8Z"/><path class="cls-2" d="M102.52,456.62l.6,0c-1.75-.61-3.45-1.18-5-1.71l-.38-.15C98.48,456,100.49,456.57,102.52,456.62Z"/><path class="cls-2" d="M97.73,454.79a2.62,2.62,0,0,1,0-2.58C96.55,453.28,96.29,454.18,97.73,454.79Z"/><path class="cls-2" d="M98.12,451.55a7.16,7.16,0,0,0-.35.66c2.32-2.06,8.1-4.76,11.91-7.33A18.74,18.74,0,0,0,98.12,451.55Z"/><path class="cls-2" d="M68.25,420.24l-.22-.08Z"/><path class="cls-2" d="M67.07,419.79l.36.17.6.2C67.71,420,67.41,419.9,67.07,419.79Z"/><path class="cls-2" d="M64.25,419.19l.09,0a24.4,24.4,0,0,1,5.67,2c-.85-.44-1.71-.86-2.58-1.23A18.94,18.94,0,0,0,64.25,419.19Z"/><path class="cls-2" d="M91.22,444.21a17.59,17.59,0,0,0-1.82,1.4,19.11,19.11,0,0,1,2.16-1.6l.18-.11c1.18-.69,2.41-1.32,3.66-1.9a25.73,25.73,0,0,1,3.07-1,14.43,14.43,0,0,0-2.64,1.26,25.92,25.92,0,0,1,4.15-1.62,40.2,40.2,0,0,1,4.9-.73,25.78,25.78,0,0,0-3.72.39,51.69,51.69,0,0,1,8.69-1.24c3.77-.29,4.84-1.09,5.73-1.95A45.8,45.8,0,0,0,122.93,423a39.36,39.36,0,0,1-5.32,10.17,28,28,0,0,1-4.71,5c-5.41.89-11.53,1.5-16.83,3.54a49.17,49.17,0,0,1,7-2.5A48,48,0,0,0,92.45,443c-1.32.65-2.62,1.36-3.89,2.1-1.33-2.46-2.69-5.16-4.17-7.85a35.59,35.59,0,0,1,1.81,5.55C87.75,446,89.43,445.25,91.22,444.21Z"/><path class="cls-2" d="M109.79,437.78a57.88,57.88,0,0,0-6.69,1.4c.65-.14,1.3-.3,2-.42A19.06,19.06,0,0,0,109.79,437.78Z"/><path class="cls-2" d="M106.14,439.83l.54-.09c-.6,0-1.2.08-1.8.14Z"/><path class="cls-2" d="M83.38,436.52a35.23,35.23,0,0,1,2.16,5.93C85.32,440.29,85,438.12,83.38,436.52Z"/><path class="cls-2" d="M64.25,419.19a16.82,16.82,0,0,0-1.71-.26,18.09,18.09,0,0,0-2.43.05A22.34,22.34,0,0,1,64.25,419.19Z"/><path class="cls-2" d="M120.1,431.51c.59-1,1.13-2,1.63-3C121.16,429.45,120.6,430.45,120.1,431.51Z"/><path class="cls-2" d="M129.36,402.22c.61,8.07-.21,16.46-3.37,23.62A40,40,0,0,0,129.36,402.22Z"/><path class="cls-2" d="M83.56,432.82a35.58,35.58,0,0,0-9-8.88l.26.23c3.41,2.83,6.38,6.35,9.3,9.45a27.71,27.71,0,0,0-3.47-5.45A26.55,26.55,0,0,1,83.56,432.82Z"/><path class="cls-2" d="M74.55,423.94l-.38-.29-.66-.51c-.27-.21-.55-.41-.83-.6a22.9,22.9,0,0,0-3.38-2l.93.55c-.63-.32-1.29-.61-2-.88a21.7,21.7,0,0,1,2,.9q.92.57,1.8,1.17c-.67-.4-1.36-.78-2.06-1.12.8.42,1.59.86,2.36,1.33a38.68,38.68,0,0,1,3.36,2.61,50.92,50.92,0,0,1,8.66,12.07q-.33-.76-.69-1.53a59.39,59.39,0,0,0-6.81-9.49c.72.67,1.4,1.37,2.07,2.1a29.93,29.93,0,0,0-3.46-3.48c-.23-.21-.45-.43-.69-.63l-.45-.37Zm-.53-.33-1-.7.75.48Z"/><path class="cls-2" d="M38.75,432.08a20.93,20.93,0,0,1,4.09-7.66c-.46.47-.91.94-1.34,1.46a20.88,20.88,0,0,0-3.76,11.44A23.46,23.46,0,0,1,38.75,432.08Z"/><path class="cls-2" d="M41.31,443.49c0,.25,0,.5.08.74a8.08,8.08,0,0,1,1.15.75c-.1-.21-.19-.44-.28-.66A3.62,3.62,0,0,0,41.31,443.49Z"/><path class="cls-2" d="M41.54,445.07a5.67,5.67,0,0,1-.15-.84,1.45,1.45,0,0,0-.22-.09C41.28,444.46,41.42,444.76,41.54,445.07Z"/><path class="cls-2" d="M44,455.73a7.55,7.55,0,0,0,3.91,1.48A14.45,14.45,0,0,1,44,455.73Z"/><path class="cls-2" d="M43.16,448.46a25.13,25.13,0,0,1-1.62-3.39,9.84,9.84,0,0,0,.48,1.54A13.52,13.52,0,0,0,43.16,448.46Z"/><path class="cls-2" d="M56.14,418.12c8.69-1.4,17.86,2.34,23.89,9.3a28.21,28.21,0,0,0-21-10,20.53,20.53,0,0,0-16.18,7A22.35,22.35,0,0,1,56.14,418.12Z"/><path class="cls-2" d="M118.12,387.44a53.57,53.57,0,0,0-5-7.79l.28.56c-.41-.6-.83-1.21-1.26-1.8-.35-.43-.7-.86-1.06-1.27a.68.68,0,0,1,0-.14c-.2-.27-.4-.54-.61-.8.24,1.43,1.55,3.78,4.71,7.66,3.49,7.1,6.88,14.5,8.09,22a53,53,0,0,0-6.54-20.2C117.25,386.27,117.7,386.84,118.12,387.44Z"/><path class="cls-2" d="M110.79,374.77c.2.41.39.82.59,1.24a2.93,2.93,0,0,1,2.72-1.56,15.06,15.06,0,0,1,12.75,6.29,13.15,13.15,0,0,1,1.67,6.38c0,1.34-.3,2.68-.39,4.8a11.57,11.57,0,0,0,1.21-6.39c-.9-4.84-4.61-8.68-9.17-10.66a16.38,16.38,0,0,0-4.56-1c.49,0,1,0,1.48,0,7.21.92,13,7.26,12.57,13.81-.11,2-.76,3.94-1.21,7.33-.11-.6-.23-1.19-.36-1.78,0,1.1,0,2.37.18,3.9a42.67,42.67,0,0,1,1.09,5.06c-.07-.94-.17-1.89-.28-2.82,2.86,12,.06,25.22-7.75,34.52a28.39,28.39,0,0,1-3.07,3.14,20.77,20.77,0,0,0,1.87-1.58c9.84-9.55,12.26-25.57,8.78-39a38.68,38.68,0,0,1,.25-4.76c2.14-4.95.31-11.17-4.43-14.9a17.13,17.13,0,0,0-7-3,18.41,18.41,0,0,0-7.36.13c.08.18.17.37.26.55.19-.05.38-.11.58-.15A1.7,1.7,0,0,0,110.79,374.77Z"/><path class="cls-2" d="M110.79,374.77c0-.09-.08-.17-.11-.26-.42.1-.84.19-1.25.31l1.09,1.38A1.8,1.8,0,0,1,110.79,374.77Z"/><path class="cls-2" d="M115.73,438.75c.25-.08.49-.15.73-.24.64-.46,1.23-.95,1.8-1.45A23.19,23.19,0,0,1,115.73,438.75Z"/><path class="cls-2" d="M111.16,436.63a29.61,29.61,0,0,0,5.2-5.13c-.16.23-.33.45-.5.67a31.73,31.73,0,0,0,4.94-7.62c-.43.88-.9,1.76-1.43,2.64a32.45,32.45,0,0,1-2.09,3c.15-.21.29-.43.43-.65l-.52.77c-.53.66-1.07,1.31-1.65,1.92a30.41,30.41,0,0,1-4.62,4c-2.6,1-5.29,1.83-8,2.62.86-.16,1.72-.31,2.61-.43C108.83,438,110.12,437.34,111.16,436.63Z"/><path class="cls-2" d="M123.44,415.83a34,34,0,0,1-2.64,8.72c.11-.24.24-.47.34-.7l.09-.18,0-.14a33.35,33.35,0,0,0,2.24-8.11l.09-.42.06-.71a39.47,39.47,0,0,0,.24-5.34,39.44,39.44,0,0,1-.16,4.36,34.09,34.09,0,0,0-.43-7.41,36.31,36.31,0,0,1-5.61,23.63A40.93,40.93,0,0,0,123.44,415.83Z"/><path class="cls-2" d="M94,441.66c-1,.34-1.9.7-2.83,1.1a3.89,3.89,0,0,1-2.47.51c.2.26.39.52.59.77A47.2,47.2,0,0,1,94,441.66Z"/><path class="cls-2" d="M88.73,443.27c-1.07-1.41-2.06-2.87-3-4.36.24.63.47,1.26.67,1.91C87.2,442.41,88,443.08,88.73,443.27Z"/><path class="cls-2" d="M83.7,435.67c.66,1.08,1.33,2.17,2,3.24A34.26,34.26,0,0,0,79,428.28,34.19,34.19,0,0,1,83.7,435.67Z"/><path class="cls-2" d="M83.16,456.63c0-.05,0-.1,0-.14-.08.46-.17.93-.26,1.39C83,457.46,83.07,457.05,83.16,456.63Z"/><path class="cls-2" d="M82.87,439.15a40.69,40.69,0,0,1,.93,13.31A35.27,35.27,0,0,0,82.87,439.15Z"/><path class="cls-2" d="M82.91,457.88a80.68,80.68,0,0,1-2.28,8.18c.13-.33.24-.65.36-1A61.22,61.22,0,0,0,82.91,457.88Z"/><path class="cls-2" d="M57.49,420.77l.54,0Z"/><path class="cls-2" d="M97,440.48c-1,.36-2,.76-2.93,1.18,2.9-1.05,5.9-1.91,8.89-2.79A41.71,41.71,0,0,0,97,440.48Z"/><path class="cls-2" d="M82.87,439.15c-.2-.79-.44-1.58-.7-2.36-.22-.53-.45-1.05-.7-1.57A29.77,29.77,0,0,1,82.87,439.15Z"/><path class="cls-2" d="M58.67,420.68c-.21,0-.43,0-.64,0Z"/><path class="cls-2" d="M49.88,456.86c-.3-.28-.58-.58-.87-.88.18.33.34.67.5,1A3.3,3.3,0,0,0,49.88,456.86Z"/><path class="cls-2" d="M49.74,457.51c-.07-.18-.16-.34-.23-.52a4.37,4.37,0,0,1-1.63.22A12.87,12.87,0,0,0,49.74,457.51Z"/><path class="cls-2" d="M37.79,441.66a37,37,0,0,1,0-4.34A25.18,25.18,0,0,0,37.79,441.66Z"/><path class="cls-2" d="M80.17,427.59c.17.19.32.39.47.58C80.49,428,80.33,427.79,80.17,427.59Z"/><path class="cls-2" d="M80,427.42l.14.17Z"/><path class="cls-2" d="M123.9,408.58c0-.45,0-.9-.06-1.35Q123.89,407.91,123.9,408.58Z"/><path class="cls-2" d="M128.09,393.26c0-.48,0-.93,0-1.34-.08.14-.13.3-.22.44C128,392.66,128,393,128.09,393.26Z"/><path class="cls-2" d="M121.1,394.22c-.08-.24-.17-.48-.26-.72C120.93,393.74,121,394,121.1,394.22Z"/><path class="cls-2" d="M121.29,394.77c-.06-.19-.12-.37-.19-.55C121.17,394.4,121.23,394.58,121.29,394.77Z"/><path class="cls-2" d="M122.93,423a42,42,0,0,0,2.32-15.7A49.91,49.91,0,0,1,122.93,423Z"/><path class="cls-2" d="M112,377.66l.06-.19c-.24-.49-.47-1-.7-1.46a3.27,3.27,0,0,0-.25,1c.35.46.7.93,1,1.41s.66.82,1,1.24l-.69-1.41Z"/><path class="cls-2" d="M118.12,387.44a53.9,53.9,0,0,1,2.72,6.06,56.79,56.79,0,0,0-2.42-5.63Z"/><path class="cls-2" d="M123.72,405.77a2.45,2.45,0,0,1,0-.27A2.45,2.45,0,0,0,123.72,405.77Z"/><path class="cls-2" d="M123.91,409c0-.12,0-.24,0-.37C123.9,408.71,123.91,408.83,123.91,409Z"/><path class="cls-2" d="M116,433a39.59,39.59,0,0,0,8.5-32,42.07,42.07,0,0,1,.72,6.2A52.21,52.21,0,0,0,124,396.57c3,10.78,2.46,22.1-2.31,31.91.85-1.44,1.71-2.82,2.42-4.22.39,3.05-3,4.3-3.6,7.15,10-12.72,8.46-29.88,2.44-44.36a11.05,11.05,0,0,0-1.57-3.86c-1.06-1.14-2.2-1.75-3-1.58-.3-.55-.62-1.1-.95-1.64a7.2,7.2,0,0,1,6,4.7,28,28,0,0,1,1.18,4.76,87,87,0,0,1,4.79,15.16c-.19-4-1.78-6.32-2-9.86-.57-2.7-.7-4.29-.92-5.8a9.18,9.18,0,0,0,0-5,12.39,12.39,0,0,0-11-8.47c-1.94-.05-3.14.58-3.51,2,.13.25.25.51.38.77a60.26,60.26,0,0,1,6,9.63c5.53,8,7,17.84,5.19,27.13a28.68,28.68,0,0,1-2.33,8.53l0,.14-.09.18a31.86,31.86,0,0,1-5.28,8.33,26.35,26.35,0,0,1-4.46,4.74,6.85,6.85,0,0,1-1.61.86c.72-.1,1.44-.21,2.17-.29A44.58,44.58,0,0,0,116,433Z"/><path class="cls-2" d="M115,433.18c.32-.33.6-.66.9-1h0C115.57,432.51,115.28,432.85,115,433.18Z"/><path class="cls-2" d="M123.7,405.5a48.06,48.06,0,0,0-2.41-10.73A49.2,49.2,0,0,1,123.7,405.5Z"/><path class="cls-2" d="M123.84,407.23c0-.49-.07-1-.12-1.46C123.77,406.26,123.81,406.74,123.84,407.23Z"/><path class="cls-2" d="M83.16,456.63c-.1.84-.21,1.67-.34,2.5.1-.37.19-.74.28-1.11.31-1.85.55-3.71.7-5.56C83.65,453.85,83.42,455.24,83.16,456.63Z"/><path class="cls-2" d="M84.37,451.38a53.87,53.87,0,0,0-1.5-15.31,5.64,5.64,0,0,1,.51.45,34.29,34.29,0,0,0-7-10,31.1,31.1,0,0,1,5.83,10.27c2.74,6.74,2.59,14.07.93,21.23-.19,1.08-.4,2.17-.63,3.24.13-.7.25-1.41.35-2.13-.5,2-1.13,4-1.83,6-.24.72-.49,1.43-.75,2.14l.39-1.17c-.47,1.26-1,2.52-1.52,3.75l.21-.57c-.13.33-.26.67-.4,1-.26.6-.53,1.19-.8,1.78a98.2,98.2,0,0,0,3.19-9.95c.32-.89.62-1.79.89-2.7,0,.14,0,.28-.08.42,0-.23.11-.47.17-.7a41.56,41.56,0,0,0,1.08-4.74c-.05.71-.12,1.42-.2,2.14a41.17,41.17,0,0,0,0-15.21c0-.07,0-.14,0-.2-.07-.34-.13-.68-.22-1s-.2-.84-.31-1.25c.07.28.14.57.2.85a26.59,26.59,0,0,0-3-7.28,23.27,23.27,0,0,1,2.85,6.43c-.07-.27-.12-.53-.2-.8a25.28,25.28,0,0,0-2.51-5.56,29,29,0,0,1,1.53,2.76c-.13-.3-.23-.59-.37-.89-.36-.65-.76-1.28-1.18-1.9a25.26,25.26,0,0,0-1.42-2.12,21.81,21.81,0,0,0-9.55-7.8,21.79,21.79,0,0,0-5.5-1.69c-.29-.06-.57-.12-.85-.16l.14,0a20.35,20.35,0,0,0-3.41-.15,17.19,17.19,0,0,1,3.88.35l-.16,0-.67-.08-.53-.06a19.9,19.9,0,0,0-3.18-.05c.4,0,.81,0,1.21,0-.67,0-1.34.07-2,.14a18.92,18.92,0,0,1,2.26,0c.68,0,1.36,0,2,0a22.37,22.37,0,0,1,4.1.95l.73.28.69.26a31.69,31.69,0,0,1,4,2q1,.67,2,1.44a23.29,23.29,0,0,0-9.27-4.2,18.24,18.24,0,0,0-4.27-.77c-.43,0-.87,0-1.3.08.44,0,.89.08,1.34.15a21.13,21.13,0,0,1,2.77.27,23.83,23.83,0,0,0-2.68-.25l.38.06c-.51,0-1,0-1.53,0a16.69,16.69,0,0,1,1.73,0l.21,0a31.59,31.59,0,0,1,5,1l-.6-.25a23.57,23.57,0,0,1,2.79,1c.28.12.56.23.83.36l.13.05-.38-.18.41.19a22.71,22.71,0,0,1,4.63,2.61l.2.16c.14.1.27.22.4.33a3.36,3.36,0,0,0-.29-.24l.93.76-.64-.52c.25.21.51.41.75.62l.24.22a22.88,22.88,0,0,1,1.86,2l.16.16a22.37,22.37,0,0,0-1.63-1.75,27.62,27.62,0,0,1,2.45,2.62c.18.23.34.46.5.69l.29.4.21.3.34.49c.13.23.25.47.38.71-.23-.4-.47-.81-.72-1.2l-.21-.3-.29-.4q-.61-.79-1.32-1.56c.41.5.8,1,1.17,1.54-.42-.59-.87-1.16-1.33-1.7a21.7,21.7,0,0,0-1.84-1.73c.4.36.78.74,1.15,1.13a30,30,0,0,1,5.69,10.57l.21.94a24.77,24.77,0,0,0-2.31-5.89,25.48,25.48,0,0,1,1.57,3.63,32,32,0,0,1,1,3.73,36.65,36.65,0,0,1,.5,4.5,29.6,29.6,0,0,0-.37-3.9c.16.81.28,1.61.37,2.41l0,.27a39.69,39.69,0,0,1,0,4.23c0-1,0-2-.07-3,.31,9.64-3.77,19.94-8.5,28.82-.55.86-1.11,1.71-1.68,2.54a9,9,0,0,0-.2.88q-.83,1.44-1.65,2.82a32.07,32.07,0,0,0,2,3c-.51-.73-1-1.47-1.43-2.24l.91-1.76a6.43,6.43,0,0,0,1.54,4.13c8,10.86,23.6,16.19,36.17,10,5.61-2.88,8.63-7,11.1-11.89,3.31-8.8-1.57-19.35-11-22-7.51-1.6-12.45,4.81-19.29,6.75-3.69.57-4.35-6.37-3.52-10.26a19.49,19.49,0,0,1,9.46-10.89c4.65-1.72,9.58-4.74,14.9-2.92a18,18,0,0,1-2.4,1.89,31.46,31.46,0,0,1,9.91-.29c-9-4.64-20.07-2.93-27.74,2.9-2,1.52-3.67,3.19-4.85,3.89a11.84,11.84,0,0,1-.76-1c-2.59,3.11-1.21,6.53-2.07,9.84.27-.81.55-1.62.81-2.41-.48,3.46-.76,6-.45,7.4a23,23,0,0,0,5.17,10.17c-1.75-1.61-4.22-2.53-4.89-4.93,3,9.46,12.8,13.59,22.09,13.54-.37,4.61-5.31,5.72-9.47,6.2,5-.12,9.47-2.38,11.25-7.86-5.46-1.16-10.79.42-15.84-2.7,3.41.73,7.65.95,10.39-1.86,2.06-2.95.57-6,.44-8.73-.67-3.54,4-5.26,7.39-4.53,3.27,1.38,5.73,3.26,7.22,6.29,3.53,6.87.64,13.72-4,18.84-7.13,6.62-17.24,7.18-26.52,3.84a27.74,27.74,0,0,1-13.36-11,6.82,6.82,0,0,1-1.14-2.91c1.44-3.15,3-6.32,4.45-9.53l0,0a67.14,67.14,0,0,0,5.24-15.89c-.1.74-.22,1.48-.35,2.22.22-1,.41-2,.56-3,.07-.63.12-1.26.16-1.9a36.12,36.12,0,0,0,.22-4.16l0-.63c0,.09,0,.17,0,.26s0,.25,0,.37a34.87,34.87,0,0,1-.38,6.06c-.11,1.18-.27,2.37-.47,3.55-.32,1.44-.7,2.87-1.13,4.3.4-1.6.75-3.21,1-4.83a71.67,71.67,0,0,1-4.87,13.64A59.61,59.61,0,0,0,81,463c-1.29,3.95-2.89,7.85-4.53,11.74a10.21,10.21,0,0,0-.08,1.06l-.15.28a5,5,0,0,0,.07.59,1.42,1.42,0,0,1,.08-.18c0,.15,0,.3,0,.44.2-.47.39-.94.59-1.43a13.77,13.77,0,0,0,.9,1.35,16,16,0,0,0,2.66,3A16.49,16.49,0,0,0,86.41,483c-.19-.26-.37-.53-.55-.8h0c-.31-.46-.6-.92-.89-1.39a2,2,0,0,0-.12-.19c-.16-.27-.31-.55-.46-.82a29.41,29.41,0,0,1-1.85-4.05c0,.11.06.21.1.31s.14.37.2.55c-.07-.19-.16-.37-.24-.56A27.1,27.1,0,0,1,81,469.69c.12-.31.22-.63.34-.95,0-.1,0-.19,0-.29.28-.91.54-1.83.79-2.75-.14.68-.3,1.36-.45,2a60.59,60.59,0,0,0,1.78-30.62,6.74,6.74,0,0,0-.59-1.05A41.86,41.86,0,0,1,84.37,451.38Zm-20.8-29.95-.09,0Zm3.47.36-.74-.23.73.23Zm15.54,18.66c0,.25.11.49.16.74C82.69,441,82.64,440.7,82.58,440.45Zm.77,4.6,0,.39Zm.19,6.37c0,.4-.08.81-.13,1.21,0-.43.09-.86.13-1.28Zm1.64,30.64-.45-.22.41.13A.36.36,0,0,1,85.18,482.06Z"/><path class="cls-2" d="M81.28,469.53c.13-.6.27-1.19.4-1.79-.11.34-.24.67-.36,1S81.29,469.28,81.28,469.53Z"/><path class="cls-2" d="M81.28,470.12a5.8,5.8,0,0,1,0-.59l-.06.24Z"/><path class="cls-2" d="M83.46,437.12s0,.07,0,.11c0-.13-.06-.24-.09-.37C83.43,437,83.44,437,83.46,437.12Z"/><path class="cls-2" d="M88,447.92l-.13-.05c-.44-.44-.52-1.61-1.34-1.56a7.42,7.42,0,0,1-.32-.82c-.19-1-.42-2-.69-3,.07.59.13,1.19.21,1.77-1-2.34-1.3-4.9-2.25-7,.71,3.38,2.1,6.33,2.78,9.8a1.87,1.87,0,0,0,.91.79A1.15,1.15,0,0,0,88,448l-.09-.06Z"/><path class="cls-2" d="M118.28,441.41c.56.12,1.11.25,1.66.39.8-.73,1.54-1.5,2.27-2.29a25.34,25.34,0,0,1-2.32,2Z"/><path class="cls-2" d="M138,372.64c-4.18-3.67-8.82-7.18-14.52-6.7,16.12,4.06,25.91,22.77,18,37.46a22.17,22.17,0,0,1-4.51,5.77A20.86,20.86,0,0,0,134.9,412c.34-.94.68-1.77,1-2.54a18.91,18.91,0,0,0,7.13-18c-1.17-6.81-4.12-14-11.41-16.49-.48-.08-.77,0-.84.29,3.91,6.27,6.39,13.65,2.14,20.32-1,1.51-1.93,3.42-1.61,10.18a42.16,42.16,0,0,1-9.38,29.79,26.36,26.36,0,0,1-3.84,3.85c-1.06-.12-2.12-.2-3.17-.24l.81-.44a14.78,14.78,0,0,1-1.58.43h-1.34a13.5,13.5,0,0,0,6.26-3.42,30,30,0,0,0,6.92-9.93,34.49,34.49,0,0,1-7.45,10.09,19.88,19.88,0,0,1,1.56-4.42,40.11,40.11,0,0,1-2.29,3.43,11.93,11.93,0,0,1-5.32,4.25,39.84,39.84,0,0,0-5.81.55c1.61-.09,3.22-.13,4.82-.15-1.78.18-3.57.19-5.36.24a38.17,38.17,0,0,0-10.71,3.64l.2-.09.21-.1.53-.25a30.81,30.81,0,0,1,9.29-2c-.81.12-1.61.26-2.4.43,3.18-.37,6.44-.36,9.67-.42,1.77.11,3.55.26,5.35.41-.92-.2-1.84-.35-2.77-.48a45,45,0,0,0,5.38-.48,44.21,44.21,0,0,0,3.85-4.24,42.09,42.09,0,0,0,3.09-4.46,42.91,42.91,0,0,1-4.19,6.14c-.46.56-.94,1.09-1.43,1.62a20.84,20.84,0,0,0,1.62-1.77,50.31,50.31,0,0,0,9.46-18.93,68.15,68.15,0,0,1,3-8.35,22.76,22.76,0,0,0,2.74-2.57A26.47,26.47,0,0,0,138,372.64Zm-6.55,51.14c.33-1,.63-2.06.87-3.12.54-2.18,1-3.94,1.49-5.43A62.34,62.34,0,0,1,131.46,423.78Z"/><path class="cls-2" d="M95.63,443.38l-.27.13.07,0-.75.37c-.38.2-.77.41-1.15.63a28.47,28.47,0,0,0-2.75,1.82,14.17,14.17,0,0,1-2.18,1.49,2.71,2.71,0,0,1-.58.14l.1,0-.1,0a.56.56,0,0,0,.48,0,3.45,3.45,0,0,0,2-.8,33.22,33.22,0,0,1,12.78-5.78,26.42,26.42,0,0,0-7.42,1.86Zm-6.09,3.94c.74-.61,1.51-1.18,2.3-1.72-.41.3-.82.6-1.22.95A8.4,8.4,0,0,1,89.54,447.32Z"/><path class="cls-2" d="M82.54,475.76a33.5,33.5,0,0,1-1.26-5.64,9.06,9.06,0,0,0,.17,1.9A28,28,0,0,0,82.54,475.76Z"/><path class="cls-2" d="M81.46,449.35a23.24,23.24,0,0,0,.06-2.77,39.19,39.19,0,0,1-1.23,9.18A34.85,34.85,0,0,0,81.46,449.35Z"/><path class="cls-2" d="M80.29,455.76c-5.37,19.18-26.42,31.84-46.76,27.49-8.33-1.1-19.78-7.62-17.7-17.36,3.26,4.77,6.66,8.9,10.07,13-1.37-.29-2.46-1.89-3.82-2.18,14,11.15,34.81,7.44,47.15-3.51-10.42,8.64-25.46,12.22-38.55,6.71-9.28-3.34-7.89-13.23-14.56-18.73-3.55-3.47-3.84,4.61-3,7.5,3.65,9.61,13.2,15,23,15.79,18.84,2,36.77-8.45,43.25-25.4C79.71,458,80,456.87,80.29,455.76Z"/><path class="cls-2" d="M55.45,424.1A10.52,10.52,0,0,0,48,432c0,.11,0,.22,0,.33,1.55-6.28,8.52-9.4,14.7-8.75,11.42,1.81,18.52,12.46,18.83,23a22.86,22.86,0,0,0-3.29-12.18C73.47,426.59,64.61,421.3,55.45,424.1Z"/><path class="cls-2" d="M47.91,432.87c0-.17.05-.34.08-.51l-.09.32C47.9,432.74,47.91,432.81,47.91,432.87Z"/><path class="cls-2" d="M56.9,479.3a33.56,33.56,0,0,0,8.72-4.51A39.81,39.81,0,0,1,56.9,479.3Z"/><path class="cls-2" d="M55.8,442.51c-3.81-5.57-7.34-12.43-.09-16.32,7.12-3.23,15-.18,19.52,5.53a25,25,0,0,1,5.62,14.15C80.58,437,76.2,428.62,66,425c-6-2-14.21-.32-15.45,5.52-1.52,3.75.52,7.58,3.24,11.56A8.88,8.88,0,0,0,55.8,442.51Z"/><path class="cls-2" d="M77.07,462.05c.13-.22.27-.43.39-.65a29.11,29.11,0,0,0,3.39-15.53A33.75,33.75,0,0,1,77.07,462.05Z"/><path class="cls-2" d="M53.75,442.07h0Z"/><path class="cls-2" d="M73.2,468a31.7,31.7,0,0,0,3.87-5.91,41.2,41.2,0,0,1-11.45,12.74A37.59,37.59,0,0,0,73.2,468Z"/><path class="cls-2" d="M36.46,479.51c6.51,2.74,13.78,2.24,20.44-.21A30.52,30.52,0,0,1,48.3,481C44.45,481,40.12,480.84,36.46,479.51Z"/><path class="cls-2" d="M36.46,479.51a23.08,23.08,0,0,1-3.5-1.85A13.47,13.47,0,0,0,36.46,479.51Z"/><path class="cls-2" d="M30,475.37a23.6,23.6,0,0,0,3,2.29,10.75,10.75,0,0,1-2.58-2.78C30.3,474.47,30.07,474.63,30,475.37Z"/><path class="cls-2" d="M53.73,442.06a9.33,9.33,0,0,1-5.82-9.19A8.89,8.89,0,0,0,53.73,442.06Z"/><path class="cls-2" d="M31.47,406h.12a13.55,13.55,0,0,0-5.13-.83,18,18,0,0,0-3.85.52,16.3,16.3,0,0,1,3.7-.46A16.86,16.86,0,0,1,31.47,406Z"/><path class="cls-2" d="M11.29,423a20.23,20.23,0,0,1,.24-6.07,15.48,15.48,0,0,0-.18,7.26,23.39,23.39,0,0,0,1.28,4.16,1.29,1.29,0,0,0,.16-.17A25.53,25.53,0,0,1,11.29,423Z"/><path class="cls-2" d="M36.47,402.2c1-1.48,2.05-3,3.17-4.45a3.11,3.11,0,0,1-.23.28c-.92,1.12-1.82,2.24-2.7,3.32-2.47,3.55-4,4.7-5.12,4.66a9.11,9.11,0,0,1,1.6.78C34.37,405.25,35.45,403.71,36.47,402.2Z"/><path class="cls-2" d="M8.29,438.37a27.73,27.73,0,0,1,4.23-4.17A15.08,15.08,0,0,0,8.29,438.37Z"/><path class="cls-2" d="M11.82,477.24c.83.67,1.68,1.32,2.6,1.93a35.12,35.12,0,0,1-8-11.45A37.45,37.45,0,0,0,11.82,477.24Z"/><path class="cls-2" d="M64.87,385.88l.33-.09Z"/><path class="cls-2" d="M12.63,428.37c-.37.37-.73.74-1.09,1.12q.56-.51,1.14-1S12.65,428.41,12.63,428.37Z"/><path class="cls-2" d="M32,416.88a89.93,89.93,0,0,1,6.43-10.46A63.49,63.49,0,0,0,32,416.88Z"/><path class="cls-2" d="M6.45,467.72A41,41,0,0,1,3.6,454.51c0,.62,0,1.23,0,1.84A34.89,34.89,0,0,0,6.45,467.72Z"/><path class="cls-2" d="M10.46,477.65C-1,465.12-1.92,448.84,5.61,435.54-3.89,447.84-.7,466.21,10.46,477.65Z"/><path class="cls-2" d="M64.87,385.88a32.6,32.6,0,0,0-5.51,2l-.78.42A33.53,33.53,0,0,1,64.87,385.88Z"/><path class="cls-2" d="M65.2,385.79l1.21-.28C66,385.59,65.6,385.69,65.2,385.79Z"/><path class="cls-2" d="M24.81,446.48c0,.29,0,.58,0,.87a21.37,21.37,0,0,0,1.9,4.56c-.21-1.07-.37-2.13-.5-3.18A12.11,12.11,0,0,1,24.81,446.48Z"/><path class="cls-2" d="M21.25,435.27a14.45,14.45,0,0,1,.74,2.09q.18.45.36,1c.25,1.08.5,2.21.85,3.32l-.18-.89c-.13-.51-.26-1-.38-1.5.1.33.2.68.29,1a20.29,20.29,0,0,0-1.17-4.13c.1.28.18.57.26.87A7.76,7.76,0,0,0,21.25,435.27Z"/><path class="cls-2" d="M25.47,439.41c0-.29,0-.57,0-.85q-.45,3.22-.63,6.5c.1.14.19.29.3.42A58.33,58.33,0,0,1,25.47,439.41Z"/><path class="cls-2" d="M23.74,443.07c-.15-.43-.3-.87-.43-1.31l.15.61C23.55,442.61,23.64,442.84,23.74,443.07Z"/><path class="cls-2" d="M23.31,441.76c-.13-.5-.25-1-.38-1.47,0,.15.07.3.09.46C23.11,441.08,23.21,441.42,23.31,441.76Z"/><path class="cls-2" d="M21.25,435.27c-.05-.09-.09-.19-.13-.28a6.89,6.89,0,0,1,.64,1.17,5.7,5.7,0,0,0-2.41-3.47c-2.54-.83-4.8,0-6.83,1.51a8.33,8.33,0,0,1,4.64-1.3,4.84,4.84,0,0,1,2.21.5.76.76,0,0,0-.16-.06c-3.46-1-6.24.35-8.58,2.77A10,10,0,0,1,15.37,434l.15-.08c1.68-.76,2.91-.59,3.89.17l.34.05A2.42,2.42,0,0,1,21.25,435.27Z"/><path class="cls-2" d="M67.32,385.32c.3-.05.6-.11.9-.15Z"/><path class="cls-2" d="M50.39,388c-4.35,2.31-7.8,5.92-10.75,9.78C42.69,394.08,46.09,390.45,50.39,388Z"/><path class="cls-2" d="M66.41,385.51l.91-.19Z"/><path class="cls-2" d="M69.67,385l-.56.08c.51-.07,1-.13,1.55-.18Z"/><path class="cls-2" d="M39.06,405.53l-.63.89.24-.31A73.65,73.65,0,0,0,27.73,428,68.82,68.82,0,0,1,32,416.88a55.14,55.14,0,0,0-6.49,21.68c.18-1.29.4-2.58.64-3.85-.28,1.55-.52,3.12-.68,4.7a39.49,39.49,0,0,0,.26,6.86,7.82,7.82,0,0,1-.86-1.06.76.76,0,0,1,0-.15,11.52,11.52,0,0,1-1.14-2c.07.19.14.38.22.57-.18-.37-.33-.75-.47-1.13l0-.14c0-.09-.08-.19-.11-.28s-.11-.3-.15-.45v0c-.49-1.47-.84-3-1.21-4.31a4.9,4.9,0,0,0-1.75-2.43c1.4,1.84,2.21,5.07,3.25,8.17a19.74,19.74,0,0,0,1.28,4.33v-.08c-.28-.92-.54-1.87-.78-2.81.25.67.52,1.32.82,1.94,0-.36,0-.71.05-1.07A7.83,7.83,0,0,0,26,446.79c.05.64.1,1.29.18,1.94.12.15.24.29.37.43-2.27-16.1,4.06-32.4,15.34-44.53,1.62-2.15,3-4.11,4.35-5.92a39.32,39.32,0,0,1,3.68-4.26,46.51,46.51,0,0,1,8.67-6.19,35.39,35.39,0,0,0-4.22,2.45,31.39,31.39,0,0,1,5-2.87,48.58,48.58,0,0,1,17.52-5.36c-14.32-6-29.29,5.63-39,14.66-3.82,4-6,4.44-8.18,5.1a22.78,22.78,0,0,0-5.82.13C13.23,404.14,7,413.62,7.56,423.13a13,13,0,0,0,1.77,5.44,1.76,1.76,0,0,1,.16,1.3c.65-.8,1.32-1.59,2-2.35a17.64,17.64,0,0,1-1.37-5.17,17.38,17.38,0,0,1,.29-5.5A16.85,16.85,0,0,1,24.2,404.27a18.08,18.08,0,0,1,7,.39c1.17.08,2.64-.79,5-3.61,6.39-9.06,16.37-16.83,28.13-18.28a55.47,55.47,0,0,0-17.2,12.61,50.55,50.55,0,0,0-4.41,5.52c-.75.89-1.48,1.8-2.19,2.72,1.2-1.83,2.15-3.5,3.18-5.08a38.82,38.82,0,0,1,2.88-3.87A44.61,44.61,0,0,0,43,399.55Q41.2,402.31,39.06,405.53ZM28.18,427.09a51.11,51.11,0,0,0-1.38,5.31A48.12,48.12,0,0,1,28.18,427.09Zm-1.52,6.09c-.11.63-.22,1.27-.32,1.92C26.43,434.45,26.55,433.81,26.66,433.18ZM43.85,401c-.81,1-1.65,2.13-2.57,3.29-.67.74-1.31,1.51-1.94,2.28.93-1.2,1.87-2.39,2.86-3.55C42.78,402.36,43.32,401.69,43.85,401Z"/><path class="cls-2" d="M8.24,439.14a22.33,22.33,0,0,1,2.39-3,15,15,0,0,0-3.69,4.63A14.2,14.2,0,0,1,8.24,439.14Z"/><path class="cls-2" d="M68.22,385.17l.89-.14Z"/><path class="cls-2" d="M5.76,443.3a22.2,22.2,0,0,1,1.18-2.56,17.2,17.2,0,0,0-2.26,4.61c-.52,1-1,2-1.5,2.9a52.28,52.28,0,0,1,5.11-9.88c-1.07,1.25-2.08,2.5-3,3.53,1.38-6.49,6.73-11.46,13.06-14a58.88,58.88,0,0,1-4-6.73,8.08,8.08,0,0,0,.74,6.05,49,49,0,0,0-11.1,14.09,39.07,39.07,0,0,1,7.6-11.79A32.5,32.5,0,0,0,.87,451.37a23,23,0,0,0,0,3.71,30.26,30.26,0,0,0,7,18.22,29.66,29.66,0,0,1-6.11-13.48A22.5,22.5,0,0,0,5,466.3a32.72,32.72,0,0,1-1.46-9.95,28.58,28.58,0,0,1,0-4.72c-.05.94,0,1.91,0,2.88a36.88,36.88,0,0,1,1.7-9.92,20.19,20.19,0,0,1,5.39-7.51,13.93,13.93,0,0,0-2.45,2.06C7.35,440.46,6.53,441.88,5.76,443.3Z"/><path class="cls-2" d="M57.56,385.29A23,23,0,0,0,50.39,388a21.6,21.6,0,0,1,6.48-2.23C57.1,385.59,57.32,385.43,57.56,385.29Z"/><path class="cls-2" d="M22.12,405.84l.49-.14Z"/><path class="cls-2" d="M58.55,385.5c-.57.05-1.13.14-1.68.24a44.88,44.88,0,0,0-10.22,8.87A35,35,0,0,1,58.55,385.5Z"/><path class="cls-2" d="M46.65,394.61l0,.06Z"/><path class="cls-2" d="M12.51,478.09l-.69-.85a31,31,0,0,1-4-3.94A34,34,0,0,0,12.51,478.09Z"/><path class="cls-2" d="M19.36,406.8a16.56,16.56,0,0,0-1.65,1.06,15.07,15.07,0,0,1,4.41-2A19.23,19.23,0,0,0,19.36,406.8Z"/><path class="cls-2" d="M13.32,412.59A12.71,12.71,0,0,0,11.53,417a16.49,16.49,0,0,1,6.18-9.09A14.28,14.28,0,0,0,13.32,412.59Z"/><path class="cls-2" d="M7.1,433.76a10.52,10.52,0,0,0,2.39-3.89,40.41,40.41,0,0,0-3.88,5.67C6.08,434.93,6.57,434.33,7.1,433.76Z"/><path class="cls-2" d="M106,88.71a68.31,68.31,0,0,1,15.26-8.58C124.08,79,126.74,78,129.2,77A71.49,71.49,0,0,0,106,88.71Z"/><path class="cls-2" d="M85.78,156.9c.58.84,1.16,1.65,1.75,2.45a36.68,36.68,0,0,1-5-11.16c-5-23.2,4.84-44.6,22-58.37C84.3,105.71,73.45,132.43,85.78,156.9Z"/><path class="cls-2" d="M139,73.2c-2.76,1.13-6.07,2.37-9.84,3.81a71.76,71.76,0,0,1,7.16-1.72c5-3.73,8.69-7,12.61-9.63a54.23,54.23,0,0,1,12.69-6.51,61.84,61.84,0,0,0-6.58,2.52A46.22,46.22,0,0,0,139,73.2Z"/><path class="cls-2" d="M109.81,176.41c-9.73-3.6-16.39-9.12-22.28-17.06C92.69,167.39,100.92,174.76,109.81,176.41Z"/><path class="cls-2" d="M96.48,138.49a9.54,9.54,0,0,0,.07,2.22C96.52,140,96.5,139.23,96.48,138.49Z"/><path class="cls-2" d="M93.58,144.11c1.58.34,2.56-4.09,2.9-5.7,0-1.87,0-3.72.16-5.55a14.58,14.58,0,0,1-3,3.23c-10-16.58,7.87-36.87,21.47-45.2a79.5,79.5,0,0,1,18.73-7.32,93.34,93.34,0,0,0-12.9,3.74C100.19,97.34,79.75,121.89,93.58,144.11Z"/><path class="cls-2" d="M96.55,140.71c.06,1.36.14,2.72.26,4.09A16.62,16.62,0,0,0,96.55,140.71Z"/><path class="cls-2" d="M122.07,174.63a18.75,18.75,0,0,1-12.26,1.78l.47.18C113.65,178.51,120.45,177.57,122.07,174.63Z"/><path class="cls-2" d="M120.3,168.77l1.3,2.21a3.32,3.32,0,0,1,.47,3.65,21.71,21.71,0,0,0,2.43-1.43A60.36,60.36,0,0,1,120.3,168.77Z"/><path class="cls-2" d="M112.07,120.76c9.83-15,24.93-22.34,41.42-24.78-10.71,1.2-21,4.41-30.07,11.14-22.15,16-19.21,42.94-3.12,61.65C111.87,154.45,102.19,137,112.07,120.76Z"/><path class="cls-2" d="M133.8,83.57a81,81,0,0,1,36,.19c3.07.74,5.49,1.3,7.47,1.79C164.38,79.78,148.27,79.87,133.8,83.57Z"/><path class="cls-2" d="M192.48,95.64a32,32,0,0,0-9-8.12,34.44,34.44,0,0,0-6.17-2,39.12,39.12,0,0,1,15.63,12.32S191.63,96,192.48,95.64Z"/><path class="cls-2" d="M127.24,161.7c-5.95-10.51-14.17-21.44-11.49-33.36C110.44,141.17,118.33,151.47,127.24,161.7Z"/><path class="cls-2" d="M215.16,143.38c2.1,1.36,4.64,2.64,6.78-.28,6.42-9,13.78-17.09,15.2-28,1.43-15.81-5.85-31.64-20-42.49C200.78,59.66,180.68,56.3,161.2,62.51a45.79,45.79,0,0,0-17.8,10.61c-4.42,1.71-10.31,3.58-17.91,6.16-28.51,9.35-49.6,37-42.58,67.37,3.83,13.67,15.41,30.59,32.86,27.9-3.8-21.69-19.24-44.26.21-64.2-16.85,15.68-9.82,38.06-7.29,57.87-15.52,1.5-25.15-16.62-25.76-29.59.43-33.64,28-59.87,63.1-62.74a40.68,40.68,0,0,0,9.38-3,46.91,46.91,0,0,1,37.28-3.69c16.66,5.86,27.38,19.2,27.7,35.85a46.51,46.51,0,0,1-1.55,11,49.16,49.16,0,0,1-4.07,10.35c-23.16-22.43-63.83-37.54-91.37-11.3-4.36,4.54-6.69,8.93-7.65,13.19a30.1,30.1,0,0,1,2.45-4.67c20.46-32.57,70.83-23.41,94.18,4.76,4.67,3.07,7.47.78,10.17-1.72-1.21,4.58-3.42,8.34-7.32,7.57-18.48-22.74-55.26-40.23-82.78-22,35.92-18,71.69,12.1,88.93,42a38.31,38.31,0,0,0,8.31-4.88C225.91,151.53,221.36,152.28,215.16,143.38Z"/><path class="cls-2" d="M104.6,89.77l-.06,0Z"/><path class="cls-2" d="M96.5,138.31l0,.1v.08C96.49,138.43,96.49,138.36,96.5,138.31Z"/><path class="cls-2" d="M239.26,139.41c7.22-10.41,9.82-24.08,5.23-39.48-.85-2.34-1.85-4.74-3-7.1a56.39,56.39,0,0,1,4.26,18.1C246.17,120.06,244.21,131,239.26,139.41Z"/><path class="cls-2" d="M106,88.71l-1.39,1.06Z"/><path class="cls-2" d="M153.49,96c13.12-1.46,26.81.08,39.43,1.89C180.16,95.15,166.4,94.07,153.49,96Z"/><path class="cls-2" d="M229.69,149.38l.53-.31a28,28,0,0,0,9-9.66,43.91,43.91,0,0,1-7.39,8.21C231.16,148.23,230.43,148.81,229.69,149.38Z"/><path class="cls-2" d="M241.08,91.92c.15.3.29.61.43.91a56.49,56.49,0,0,0-25.83-28.15c-16.89-9.38-36.88-11.67-54-5.53C191.58,49.57,227.11,63.49,241.08,91.92Z"/><path class="cls-2" d="M94.13,173.14C69.91,149,75.15,121.24,92,99.52,78,115.91,71.27,136,83.51,159.63c8.35,16.24,29,30.28,47.75,21.44,3.89-2.38,6.81-8.18,5.2-8.53-2.84-3.67-6.09-7.25-9.22-10.84,2.53,4.47,4.66,8.86,5.34,13.22C135.12,186.71,107,183.92,94.13,173.14Z"/><path class="cls-2" d="M103.69,112.55c-4.62,6.28-6.52,13.15-7,20.31C101,126.65,99.59,118.44,103.69,112.55Z"/><path class="cls-2" d="M131.62,68.72A105.55,105.55,0,0,0,92,99.52C102.63,87.09,117.52,76.8,131.62,68.72Z"/><path class="cls-2" d="M163.86,201.77a44.15,44.15,0,0,0,8.82-16.28A49.84,49.84,0,0,1,163.86,201.77Z"/><path class="cls-2" d="M184.28,131.37c-10.19-9.57-22.41-15.09-36.67-11.05a19.84,19.84,0,0,0-3.46,1.24,42,42,0,0,1,20.26-.87A41.51,41.51,0,0,1,184.28,131.37Z"/><path class="cls-2" d="M137.22,137.54a19.45,19.45,0,0,0,7.83,3.87,32.39,32.39,0,0,1-4.52-2.82Z"/><path class="cls-2" d="M134.65,133.61a8.22,8.22,0,0,1,1.4-6.91c-4.36,3.75-6.54,8.14-.45,10.33l1.62.51A9.3,9.3,0,0,1,134.65,133.61Z"/><path class="cls-2" d="M184.28,131.37Z"/><path class="cls-2" d="M144.15,121.56c-3.49,1.14-6.39,2.84-8.1,5.14A35.2,35.2,0,0,1,144.15,121.56Z"/><path class="cls-2" d="M181.34,154.46c0,.83,0,1.68.12,2.53C181.43,156.14,181.39,155.3,181.34,154.46Z"/><path class="cls-2" d="M187.06,196.18v0Z"/><path class="cls-2" d="M187.05,196.21l-.14.26Z"/><path class="cls-2" d="M176.29,144.11c.5,1.07.94,2.14,1.35,3.22.05-.76.12-1.51.2-2.26C177.34,144.74,176.83,144.41,176.29,144.11Z"/><path class="cls-2" d="M172.8,197.83a35.82,35.82,0,0,0,3-6.54C174.89,193.49,173.89,195.68,172.8,197.83Z"/><path class="cls-2" d="M177.64,147.33c-.95,14,3,29.81-1.84,44C181.58,177.2,183.32,162,177.64,147.33Z"/><path class="cls-2" d="M126.27,228.18l.29.06,1.5-.78Z"/><path class="cls-2" d="M171.67,226.1c-2.84,2.64-4.49,4.49-6.06,6.13C151.06,248,124.3,251.16,106,238.4c5.3,7.4,14.62,9.38,23.66,10.63a45.1,45.1,0,0,0,37.25-16.53,79.14,79.14,0,0,1,11.26-12c25.08-20.84,33.28-59.23,10.1-85.06q-2-2.13-4-4.06a58.47,58.47,0,0,1,14.92,24.06,56.48,56.48,0,0,1,2,11.21c-2.88-20.59-16.78-40.08-37.08-44.41-11-4-33.92.79-27.82,11.72a15.78,15.78,0,0,0,4.27,4.64A115,115,0,0,1,154,143.7c-3-.82-6.16-1.46-9-2.29,7.22,3.8,16.59,6.5,22.84,12.34A25,25,0,0,1,173.32,166a42.16,42.16,0,0,1-.64,19.53c2.71-8.83,2.46-18.53-2.13-28.78a20.87,20.87,0,0,1,4,11.13c1.88,16.94-5.27,29.6-15.86,39.67a67.34,67.34,0,0,0,5.12-5.74c-9.14,11-23,19.08-35.8,25.69,3.13-1.28,6.27-2.75,9.36-4.39-3.19,1.9-6.38,3.7-9.49,5.43l-1.37-.26-2.24,1.13a53.2,53.2,0,0,0,14.69.11c17.89-.71,33.19-12.13,42.91-24.75q.65-.9,1.26-1.83a45.69,45.69,0,0,1-3.53,4.56c-9.26,10.32-21.33,18.48-34.89,21,16.49-3.89,30.93-14.92,39.76-28a70.06,70.06,0,0,0,5.92-13.37,54.67,54.67,0,0,1-3.38,9.08c4.53-9.11,7-19.63,5.39-29.37a45.4,45.4,0,0,0-3.27-11.92c-2.24-5.29-11.9-15.39-11.27-10.44,0,.21,0,.41-.07.62a31.27,31.27,0,0,1,3,2.21q.28,3.58.48,7.18a20.41,20.41,0,0,1,.43-4.36c11.47,8.8,11.86,23.07,8.09,33.45a51.8,51.8,0,0,0,1.19-5.77c-2.79,8.55-6.32,18-12.19,25.6,4.77-6.72,6.72-15.81,8.31-23.22l-1.95,1.19c0-8,1.67-15.71-1.86-22.88-2.6,4.26,1.59,8.37.93,11.44A74,74,0,0,1,181.46,157c.8,19.64-1.47,39.44-16.37,55.39A20.94,20.94,0,0,0,175.74,207a35.26,35.26,0,0,1-14.86,9.3,113,113,0,0,0,11.92-18.47,35.56,35.56,0,0,1-4.13,5.68c16.88-23.7,7.93-52.91-13.34-71.91,21.67-6.61,36.78,17.49,40,34.23,3.45,31.25-20.87,58.18-51.94,66.27a57.07,57.07,0,0,1-17.79,5.43c-.28.37-.09.81.5,1.31,10.76,6.26,23.06,2.34,33-3.31,4.08-2.34,7.44-5.43,11.6-9.69,17-12.49,29.23-30.81,30.62-53.06C200.52,193.51,188.33,212.42,171.67,226.1ZM138.55,226c24.53-.57,44.63-19.14,51-41.1-5.69,24.18-30.34,45.54-58.07,42.79,4.1-2.8,8.35-5.56,12.52-8.43a91,91,0,0,0,10.21-7.52c11.57-9.31,20.9-20.5,22.35-37.06C174.83,198.4,156.36,213.73,138.55,226Z"/><path class="cls-2" d="M186.91,196.47a61.59,61.59,0,0,1-3.73,6.43A51.06,51.06,0,0,0,186.91,196.47Z"/><path class="cls-2" d="M128.72,36.75c7.43,5.74,16.91,5.79,24.67,1.46,7.47-5.05,10.18-13.44,7-21.46-2.77-4.84-7.53-8.18-12.65-8.07s-8.33,2.86-9.92,7.55c-1.13,3.7,2.41,8.28,6.3,9.43,2.85.68,6.35-1.36,6.24-3.8-.57-1.46-3-3.13-3.53-4.59-2.48-4.11,4.73-3.28,7.11-1.61,7,6.72.56,18.86-8.35,20.26-8.15,1.15-16.52-2.6-18.64-10.16-3.45-8.75.2-19.12,8.44-24.61,1.66-1,2.06-1.37.88-1-6.2,3-11.87,8.27-14.11,15.67A19.76,19.76,0,0,0,128.72,36.75Z"/><path class="cls-2" d="M91.09,92.82c.89-.63,1.73-1.25,2.55-1.88a16.6,16.6,0,0,1-1.59.77Z"/><path class="cls-2" d="M96.39,45.41A34.2,34.2,0,0,1,108.9,73.27c-.34,1.83-1.45,3.88-3.62,6.38A65.33,65.33,0,0,1,93.64,90.94C99.4,87.82,103.92,81.53,109,76.5a37.31,37.31,0,0,0-.15-9.84c-1.44-9.82-6.77-19.17-16.1-24-9-4.26-19.5-5.44-28.5-.63a26.37,26.37,0,0,0-9.12,7.75,34.85,34.85,0,0,1,7.53-6.59A31.52,31.52,0,0,1,96.39,45.41Z"/><path class="cls-2" d="M55.09,49.82a20.79,20.79,0,0,0-3.72,6.71,21.94,21.94,0,0,0-1.46,11A26.12,26.12,0,0,1,55.09,49.82Z"/><path class="cls-2" d="M49.2,79.88A33.94,33.94,0,0,0,62.42,92.26c5.3,2.75,11.34,4.07,14.87,6.17-2.06,7.87.19,7.09,7.07-.94a149.13,149.13,0,0,1,15-14.4c3.7-3.79,5.32-7,5.86-10.07,2.15-14.28-8.43-28.38-22.6-30.34-6.88-.4-15.35.36-19.27,6.15,8-1.92,16.51-2.68,23.88,2.74,8.2,5.8,12.21,14.88,8.75,23.75-4.07,9.07-12.64,15-23.16,13.86C60.62,87.71,51.25,78.37,49.91,67.5c.07.78.16,1.57.3,2.34a26.83,26.83,0,0,0,14.48,17.4c9.79,4.65,20.84,1.77,27.78-5,7.32-7.52,5.5-17.94,2.91-26.83a17.11,17.11,0,0,1,5.34,16.35c-1.07,5.76-5,11.47-11,15.69-3.67,3-6.25,3.9-8.9,3.88A26.83,26.83,0,0,1,70,91,29,29,0,0,1,52,78.34c-5.65-9.85-4.85-20.47,1.84-29.72,7.89-9.64,20.75-13.09,32.56-10,3.61.76,3.6.39,3.45,0l-2-5.37L85.43,34a22.55,22.55,0,0,1-7.65.82c-7-.66-13.5.1-18.88,3.76C46.15,47.83,40.43,65.2,49.2,79.88Z"/><path class="cls-2" d="M138,308.75a25.21,25.21,0,0,0,1-5.73,18.56,18.56,0,0,0-5.93-12.68C138.29,295.41,139.43,302.26,138,308.75Z"/><path class="cls-2" d="M141,309.73a22,22,0,0,0,.27-12A26.74,26.74,0,0,1,141,309.73Z"/><path class="cls-2" d="M111.85,269.5c7.47-3.83,15.75-3.35,23.79-1.07-10.18-3.68-21.11-2.94-28.58,4-5.4,5.78-9.41,14.83-2.66,22.21,3.88,3.65,6.52,3.42,8.8,1.78-3.75,2.14-10.06-2.73-11.77-7.37C99.86,281.79,104.87,273,111.85,269.5Z"/><path class="cls-2" d="M131,334A32.33,32.33,0,0,1,112.35,337l-1.51.63A36.34,36.34,0,0,0,131,334Z"/><path class="cls-2" d="M141.11,297.16a27.14,27.14,0,0,0-4.23-8.46,11.91,11.91,0,0,0-7.41-4.66C135.13,286.1,139.37,291.4,141.11,297.16Z"/><path class="cls-2" d="M104.41,280.39a18.41,18.41,0,0,1,3.75-5.69c-.62.51-1.26,1-1.91,1.52A9.45,9.45,0,0,0,104.41,280.39Z"/><path class="cls-2" d="M108.16,274.7a45.07,45.07,0,0,1,6.25-4.48A24.39,24.39,0,0,0,108.16,274.7Z"/><path class="cls-2" d="M153.25,316.23c.17-.4.32-.8.48-1.2C153.58,315.44,153.41,315.83,153.25,316.23Z"/><path class="cls-2" d="M109.19,291.7c-3.58,1.55-5.92-5.67-4.78-11.31,0,.12-.11.23-.16.35C102.24,285.26,105.6,293.9,109.19,291.7Z"/><path class="cls-2" d="M129.47,284a15.13,15.13,0,0,0-8.1-.63c-4,1.28-6.72,3.89-9.26,6.07C117.26,285.89,123.78,283,129.47,284Z"/><path class="cls-2" d="M140.84,278.2a22.06,22.06,0,0,0-8-4.11A53.75,53.75,0,0,1,140.84,278.2Z"/><path class="cls-2" d="M153.73,315h0Z"/><path class="cls-2" d="M115.85,269.49c-.49.23-1,.47-1.44.73C114.88,270,115.36,269.73,115.85,269.49Z"/><path class="cls-2" d="M141.24,297.55c0-.13-.09-.26-.13-.39.06.2.11.4.17.6A1.55,1.55,0,0,1,141.24,297.55Z"/><path class="cls-2" d="M141,309.73c-2.42,8.06-9,15.23-16.86,20.66C132.37,325.64,138.81,318.38,141,309.73Z"/><path class="cls-2" d="M135.31,280.26a79.73,79.73,0,0,1,8.15,6.88A22,22,0,0,0,135.31,280.26Z"/><path class="cls-2" d="M152.59,298c-.58-7.06-4.34-13.8-10.5-19.07l-1.25-.73c7.72,6.16,12,17.13,11.33,26.64-1.33,12.57-9.81,23.61-21.14,29.17C144.56,327.59,154.25,312.72,152.59,298Z"/><path class="cls-2" d="M121.2,274.46c2.58,2.53,6.56,3.38,10.54,4.23a9.56,9.56,0,0,1-4.78-2,74.25,74.25,0,0,1,8.35,3.57c-3.13-2.34-6.43-4.59-9.73-6.84a21.23,21.23,0,0,1,7.28.67C129.05,272.64,125,272.14,121.2,274.46Z"/><path class="cls-2" d="M112.35,337a67.92,67.92,0,0,0,11.8-6.57,45.31,45.31,0,0,1-16.1,5.61A32,32,0,0,0,112.35,337Z"/><path class="cls-2" d="M114.22,295.58a13,13,0,0,1-1,.84A4,4,0,0,0,114.22,295.58Z"/><path class="cls-2" d="M109.19,291.7a23.23,23.23,0,0,0,2.92-2.22C111.08,290.2,110.1,291,109.19,291.7Z"/><path class="cls-2" d="M151.7,281.16c.08.12.16.26.24.39Z"/><path class="cls-2" d="M123.54,287.83a10.52,10.52,0,0,1,9.56,2.51c-.2-.19-.38-.4-.6-.59-6.16-5.28-14.13-2-17.74,5.12a5.75,5.75,0,0,1-.54.71C117.07,293,119.53,288.55,123.54,287.83Z"/><path class="cls-2" d="M151.46,280.8c.08.12.16.23.24.36Z"/><path class="cls-2" d="M151.94,281.55c4.79,7.73,6.5,17.26,5.65,26.13C158.55,298.45,156.86,289.13,151.94,281.55Z"/><path class="cls-2" d="M151.46,280.8a31.94,31.94,0,0,0-13.52-11.67c-.76-.25-1.53-.48-2.3-.7.44.16.87.31,1.31.49A34.11,34.11,0,0,1,151.46,280.8Z"/><path class="cls-2" d="M157.59,307.68c-.07.74-.15,1.48-.26,2.22C157.44,309.17,157.52,308.42,157.59,307.68Z"/><path class="cls-2" d="M60.69,337.29c-2.78-4.94-4.8-11.48-4.52-17.39-.94,7.63,1.52,15.86,8.34,23.22,1,1,2.12,1.94,3.26,2.87A36.83,36.83,0,0,1,60.69,337.29Z"/><path class="cls-2" d="M153.25,316.23a44.51,44.51,0,0,1-9.69,14.12,31.11,31.11,0,0,0,5.56-6.37A41.81,41.81,0,0,0,153.25,316.23Z"/><path class="cls-2" d="M144.89,275.56c-6-5-13.54-8.09-21.25-7.71a32,32,0,0,1,28.59,17.2,37.57,37.57,0,0,1,1.51,30C158.94,301.75,157.19,286.43,144.89,275.56Z"/><path class="cls-2" d="M116.12,269.37a25.35,25.35,0,0,1,7.52-1.52c-.34,0-.68,0-1,0A18.21,18.21,0,0,0,116.12,269.37Z"/><path class="cls-2" d="M58.67,311.53a16.47,16.47,0,0,0-2.5,8.37A26.27,26.27,0,0,1,58.67,311.53Z"/><path class="cls-2" d="M112.45,330c-15.14,2.71-29.06-5.21-41-13.66-.9,1.94-1.7,4-2.48,6.11a18.74,18.74,0,0,1,0-8.27c.36-1.12,1.53-.86,3.6.59,13.18,13.5,35.87,19.33,52.43,10-19.55,8.69-44.82.33-55.9-17.46-3.9-4.26-5.81-2.58-7.41-.72a28.34,28.34,0,0,0-3,4.93,13.7,13.7,0,0,1,6.5-5.17c.1,9.18-4,17.74-.93,26.38,3.7,9.22,12.17,16.18,23,18.59a35.69,35.69,0,0,0,26.3-3.45,36.69,36.69,0,0,0,7.22-5.39c1.19-.29,2.35-.63,3.5-1l.09-.11c.63-.17,1.24-.36,1.86-.56a47.61,47.61,0,0,0,6.29-2.85l-2.81,1.61a43.57,43.57,0,0,0,13.86-9.23,54.48,54.48,0,0,1-7.35,5.39c18.28-12.13,26.95-35.71,12.85-55.33-6.55-8.32-17.09-12.56-28.84-11.11-8.57,1.14-15,6.71-15.79,15.44.59,2.11,1.18,4.22,3.17,4.64,6.58-1.57,10.39-9.66,18.35-8,12,2.55,17.68,14.66,17.45,25.5,1.23-10.62-4.51-22.74-16.25-26.24-7-1.48-15.75,5.55-18.33,3-5.76-7.17,8.41-15,17.57-14.07a34,34,0,0,1,28,24.79c4.92,20.85-10.68,40.29-31.69,45.7-4.38,1.15-7.12,2-9.8,2.81a28,28,0,0,1-11.29,3.95c-10.8,1-20.45-3.64-25.35-12.87A29.74,29.74,0,0,1,74,327.44a30.42,30.42,0,0,1-.71-6.85c18.26,9.91,44.73,17.54,60.32-1.9a28.35,28.35,0,0,0,4.39-9.94C134.75,319.55,124.55,327.52,112.45,330Z"/><path class="cls-2" d="M124.27,341.49a35.69,35.69,0,0,1-7.39,6.73c-13.91,9.52-34.16,9.5-48.23-1.51-.3-.23-.59-.48-.88-.72a36.46,36.46,0,0,0,22.52,9.38,41.3,41.3,0,0,0,24.93-5.84,33.51,33.51,0,0,0,6.44-5.23c2.62-1.65,5.34-3.18,8-4.72-1.13.47-2.3.87-3.48,1.24C125.57,341.06,124.92,341.28,124.27,341.49Z"/><path class="cls-2" d="M115.85,269.49l.27-.12-.09,0Z"/><path class="cls-2" d="M69.47,256.69C68.23,240,84.8,227,101.18,229.84c-5-2.77-10.68-1.47-16,.18a26.45,26.45,0,0,0-15.31,31.76,23.87,23.87,0,0,0,1.45,3.47,67.11,67.11,0,0,1-.69,8.84c-2.27,13.84.67,29.32,12,39.66,9.94,9.07,30.94,15.16,40.68,4.13A18.2,18.2,0,0,1,111.88,323a35.29,35.29,0,0,1-5,.14,25,25,0,0,0,16.77-5.62,18.51,18.51,0,0,0,1.62-2.3,73.22,73.22,0,0,1-11.79.28,33.26,33.26,0,0,1-12.1-2c-9.77-2.89-17.84-9-20.27-20a32,32,0,0,1-1.42-9.76v-.34A29.09,29.09,0,0,1,81,274.57c2.15-9.23,7.5-17.6,15.82-22.65a59.25,59.25,0,0,1,9.38-6.35l.66-.55c.24-1.45-.6-2.51-2.39-3.26A12.38,12.38,0,0,0,91,245a9.16,9.16,0,0,0-2,4.56c-.81,1.3-1.59,2.69-3.21,4.92-1.62,3.15-4,4.62-5.82,8.2a86.46,86.46,0,0,1,10.57-11.88,29.26,29.26,0,0,1,3-3.87,7.21,7.21,0,0,1,7.4-1.83c-.52.36-1,.73-1.54,1.1-.69-.49-2-.41-3.42.21a11.4,11.4,0,0,0-3,2.88c-11.4,10.76-19.82,25.79-15.88,41.48.6-2.84-2-5.37-.38-8,.08,1.56.3,3.16.49,4.8-.33-10.91,3.81-21.46,11-30.07a53.1,53.1,0,0,0-5.3,8.89,42.43,42.43,0,0,1,2.9-4.84c-7.49,11-8.65,25.09-3.32,38.28,4.15,9.8,12.7,13.61,22,18.57-10.76,1.66-20.49-6.36-26-14.47C70.75,291.41,71,275.62,77.76,263c3.06-6,3-8.17,2.69-10-1.15-7.82,4.13-13.54,10.25-17.67.06-.28-.17-.48-.64-.61-7.67-.72-13.3,4.66-17.15,10.39a18.9,18.9,0,0,0-.83,19.32c0,.83-.06,1.73-.13,2.73a21.57,21.57,0,0,0-.72-3.42A22.36,22.36,0,0,1,69.47,256.69Zm18,2.66c-.45.58-.89,1.16-1.3,1.75C86.55,260.51,87,259.92,87.43,259.35Zm2.15-2.53c-.53.57-1,1.16-1.51,1.75C88.56,258,89.06,257.39,89.58,256.82ZM78.46,308.9c.5.66,1,1.31,1.6,1.94l-.8-.78a39.89,39.89,0,0,1-9-22.54A47.3,47.3,0,0,0,78.46,308.9Zm-7.7-32.73a35.38,35.38,0,0,0-.52,3.51,61.79,61.79,0,0,1,1.39-9.17C71.44,272.07,71.16,273.91,70.76,276.17Z"/><path class="cls-2" d="M97.3,251.65l-.45.27a59.11,59.11,0,0,0-4.51,4.15A54.73,54.73,0,0,1,97.3,251.65Z"/><path class="cls-2" d="M92.34,256.07l-.54.56Z"/><path class="cls-2" d="M91.8,256.63c-.13.13-.25.27-.38.41C91.55,256.9,91.67,256.76,91.8,256.63Z"/><path class="cls-2" d="M84.84,265.86a2,2,0,0,0-.14.25A2,2,0,0,1,84.84,265.86Z"/><path class="cls-2" d="M91.42,257a47.74,47.74,0,0,0-6.58,8.82A48.89,48.89,0,0,1,91.42,257Z"/><path class="cls-2" d="M80.93,260.66a40,40,0,0,0-6.51,22.62C74.5,275.56,77.14,267.69,80.93,260.66Z"/><path class="cls-2" d="M77.24,287.59c0,1.15.12,2.31.26,3.47C77.47,289.87,77.36,288.72,77.24,287.59Z"/><path class="cls-2" d="M86.34,251.65c-.15.38-.32.78-.51,1.21l.52-.72C86.33,252,86.35,251.82,86.34,251.65Z"/><path class="cls-2" d="M84.7,266.11c-.24.42-.48.84-.7,1.27C84.22,267,84.46,266.53,84.7,266.11Z"/><path class="cls-2" d="M74.42,283.28a29.13,29.13,0,0,0,5.66,18,40.87,40.87,0,0,1-2.58-10.26,19.43,19.43,0,0,1-.39,4.68A34.39,34.39,0,0,1,74.42,283.28Z"/><path class="cls-2" d="M106.42,245.84c.5-.3,1-.58,1.53-.86a3.45,3.45,0,0,0,.17-1L106.89,245a1.2,1.2,0,0,0,0,.2l-.63.35-1.22,1C105.48,246.32,106,246.07,106.42,245.84Z"/><path class="cls-2" d="M78.36,282.49a50.13,50.13,0,0,1,4.54-16.08A42,42,0,0,0,78.36,282.49Z"/><path class="cls-2" d="M76.87,296.93a33.05,33.05,0,0,0,4.59,7.66c-.25-.62-.48-1.24-.71-1.87A28.74,28.74,0,0,1,76.87,296.93Z"/><path class="cls-2" d="M108.83,244.5c.51-.28,1-.55,1.55-.81-.32-.28-.66-.54-1-.8l-.22.19A1.76,1.76,0,0,1,108.83,244.5Z"/><path class="cls-2" d="M82.39,258.1c-.5.84-1,1.69-1.46,2.56a44.62,44.62,0,0,1,3.13-4.28c.76-1.36,1.33-2.51,1.77-3.52-.36.5-.71,1-1.06,1.52,1-3.29,1.18-5.36,1.88-7.2,2.27-6.15,10.17-9.57,17.12-7.47.46.2.91.41,1.35.62a16.67,16.67,0,0,0-4.55-1c-5-.05-9.93,1.94-12.74,6a11.54,11.54,0,0,0-1.49,6.32c.77-2,1.07-3.31,1.6-4.54A13,13,0,0,1,92.07,242a15.06,15.06,0,0,1,14.2-.53,2.91,2.91,0,0,1,1.85,2.53l1-.89a1.37,1.37,0,0,0-.26-.56c.17.12.32.25.48.37l.46-.4a18.32,18.32,0,0,0-6.67-3.12,16.85,16.85,0,0,0-7.58-.08c-5.85,1.47-10.06,6.39-10.12,11.79a39.36,39.36,0,0,1-1.72,4.44c-9.17,11.47-13.48,28.31-6.88,41.41C71.45,284.33,74,269.07,82.39,258.1Z"/><path class="cls-2" d="M125.57,315.15c.22-.33.46-.65.68-1l-.5.1c-.16.32-.33.63-.5.93Z"/><path class="cls-2" d="M107.91,245.11l-1.49.73c-.64.37-1.26.75-1.89,1.13l.48-.4a54.87,54.87,0,0,0-7.71,5.08c.63-.37,1.28-.71,1.94-1A53,53,0,0,0,85,266.38c4.19-6.39,10.31-11.76,16.39-16.82,4.47-2.24,6.63-3.85,7.43-5.06-.3.15-.59.31-.88.48C107.93,245,107.93,245.07,107.91,245.11Z"/><path class="cls-2" d="M83.23,268.93a37.58,37.58,0,0,0-2,5l-.24.68-.09.42a33.24,33.24,0,0,0-1.27,8.32v.34c0,.26,0,.52,0,.78a33.51,33.51,0,0,1,1.15-9,41,41,0,0,0-.37,14.85A36.34,36.34,0,0,1,85,266.38,34.34,34.34,0,0,0,81.59,273,38,38,0,0,1,83.23,268.93Z"/><path class="cls-2" d="M81.09,293.4h0c.13.43.26.86.41,1.28C81.35,294.26,81.22,293.83,81.09,293.4Z"/><path class="cls-2" d="M83.39,268.59c0,.11-.11.22-.16.34C83.28,268.81,83.34,268.7,83.39,268.59Z"/><path class="cls-2" d="M79.93,287.43c-.13-1-.2-2-.23-3a31.6,31.6,0,0,0,1.39,9c-.06-.27-.13-.53-.18-.81,2.6,10.11,9.48,16.53,18.06,19.89a32.5,32.5,0,0,1-18.31-21.23c-.06-.34-.13-.67-.18-1l.12.75A29.45,29.45,0,0,1,79.93,287.43Z"/><path class="cls-2" d="M84,267.38c-.21.4-.41.8-.61,1.21C83.59,268.18,83.79,267.78,84,267.38Z"/><path class="cls-2" d="M113.46,315.46c.72,0,1.43-.06,2.15-.12A44.76,44.76,0,0,1,99,312.48c.78.35,1.58.67,2.39,1A54.45,54.45,0,0,0,113.46,315.46Z"/><path class="cls-2" d="M84.25,306.17a38.75,38.75,0,0,1-5.89-23.68,45.53,45.53,0,0,0,2.39,20.23A30.09,30.09,0,0,0,84.25,306.17Z"/><path class="cls-2" d="M123.31,317.88c.23-.23.45-.47.67-.72l-.35.32Z"/><path class="cls-2" d="M126.65,312.26a31.63,31.63,0,0,1-11,3.08,53.88,53.88,0,0,0,10.14-1.09A21.38,21.38,0,0,0,126.65,312.26Z"/><path class="cls-2" d="M126.05,315.1l-.48,0a20.09,20.09,0,0,1-1.59,2A22.34,22.34,0,0,0,126.05,315.1Z"/><path class="cls-2" d="M145.88,348.49a13.11,13.11,0,0,0-13.94,5.57,10.93,10.93,0,0,0,2.24,13.82c2.89,2,6.45,2.62,9.23,1.24s3.75-3.76,3.3-6.79c-.44-2.36-3.67-4-6.13-3.65-1.76.36-3.1,2.4-2.35,3.75.73.66,2.51,1,3.24,1.65,2.53,1.65-1.66,3.05-3.44,2.74-5.72-2-5.65-10.4-1.17-13.5,4.15-2.75,9.8-2.81,13.1.86a13,13,0,0,1,2.35,15.95c-.62,1-.74,1.3-.2.8a15.71,15.71,0,0,0,3.3-12.42A12.92,12.92,0,0,0,145.88,348.49Z"/><path class="cls-2" d="M141.68,268.68c.43.24.85.49,1.27.75l-.41-.26C142,268.84,141.68,268.68,141.68,268.68Z"/><path class="cls-2" d="M144.72,270.6c-.16-.12-.34-.23-.51-.35Z"/><path class="cls-2" d="M156.6,325.73l.4.34c-.08-.27-.16-.55-.22-.84Z"/><path class="cls-2" d="M144.21,270.25c-.41-.28-.83-.55-1.26-.82C143.38,269.7,143.8,270,144.21,270.25Z"/><path class="cls-2" d="M145.93,271.5a34.61,34.61,0,0,1,5.39,5.22l-.47-.6A32.94,32.94,0,0,0,145.93,271.5Z"/><path class="cls-2" d="M168.42,303.8c-.94-.63-1.77-2.33-2.5-6.2-.4-1.51-.8-3.07-1.24-4.63.87,3.68,1.42,7.37,2,10.72A14.42,14.42,0,0,1,168.42,303.8Z"/><path class="cls-2" d="M175.91,306.55a16.25,16.25,0,0,0-7.49-2.75,1.69,1.69,0,0,0,.38.19A16.91,16.91,0,0,1,175.91,306.55Z"/><path class="cls-2" d="M164.68,293a33.74,33.74,0,0,0-5.85-13.26C161.76,283.7,163.39,288.38,164.68,293Z"/><path class="cls-2" d="M180.28,327.76c-4.11,6.08-11.6,8.93-19.13,7.53a21.46,21.46,0,0,1-6.19-2.64,3.61,3.61,0,0,1-1.73-3.1c-.23.56-.47,1.12-.71,1.67a19,19,0,0,0,11.42,4.63c6.13.06,12.23-2,15.8-7a15.4,15.4,0,0,0,2.8-6.69A20.06,20.06,0,0,1,180.28,327.76Z"/><path class="cls-2" d="M175.91,306.55l.46.3Z"/><path class="cls-2" d="M153.46,274.42c.17.25.32.49.48.74a21.54,21.54,0,0,1,4.89,4.55A22.89,22.89,0,0,0,153.46,274.42Z"/><path class="cls-2" d="M145.93,271.5c-.4-.31-.8-.61-1.21-.9C145.14,270.89,145.53,271.19,145.93,271.5Z"/><path class="cls-2" d="M177.25,303.79A22.27,22.27,0,0,0,172,301.3c-1.75-1.52-3.54-2.78-5.38-8-5.21-12.23-14.12-29-29.66-29.33a48.58,48.58,0,0,1,13.89,12.15,31.91,31.91,0,0,1,3.07,4.17,36.13,36.13,0,0,0-2.6-3.57,46.64,46.64,0,0,1,5.39,9.23c4.08,10.67,3,23.28-.29,34.55a42.84,42.84,0,0,0,3.15-25.6,43.39,43.39,0,0,1-3.43,28c-2.7,6.45-1.12,8,.8,9a16.49,16.49,0,0,0,12.54,1.39c3.88-1.56,8.31-4.17,8.82-8.42-3.86,3.15-8.29,5.77-13.87,4.65a15.92,15.92,0,0,1-7.43-3.4,8.47,8.47,0,0,0,1.86,3.34c-2-.62-3.4-2-1.77-6.91.36-.73.68-1.47,1-2.21q-.65,2.38-1.36,4.73l.06.21c1-2.84,1.92-5.73,2.65-8.65a43.47,43.47,0,0,0,2-13,46.27,46.27,0,0,0-7.48-28.44c-.48-.33-.95-.65-1.47-1,6.39,7.45,8.71,16.1,8.76,25.07a53.81,53.81,0,0,0-12.93-29.92c10.14,6.13,16.08,17.29,18.21,28.18,1,3.51,2,4.92,3.06,5.32a18.13,18.13,0,0,1,6.59,2.52,16.87,16.87,0,0,1,7.41,17.1,18.33,18.33,0,0,1-15,14c-2.19.51-2.08.71-1.88.9l2.6,2.49,1.12-1.07a13.23,13.23,0,0,1,4-2.44c4.06-1.45,7.38-3.55,9.29-7C188,320.93,186.22,309.74,177.25,303.79Z"/><path class="cls-2" d="M176.37,306.85c.21.15.42.3.62.46C176.79,307.15,176.58,307,176.37,306.85Z"/><path class="cls-2" d="M182.68,317.41a14,14,0,0,0-2.25-6.42,16.44,16.44,0,0,1,2.11,11.14A12.41,12.41,0,0,0,182.68,317.41Z"/><path class="cls-2" d="M156,321.39c-2.09,4.09-2.79,6.55-2.76,8.16a89.17,89.17,0,0,0,3.19-9.05C156.28,320.8,156.14,321.1,156,321.39Z"/><path class="cls-2" d="M179.54,309.67a19.51,19.51,0,0,0-1.66-1.62,15.22,15.22,0,0,1,2.55,2.94C180.15,310.54,179.86,310.1,179.54,309.67Z"/><path class="cls-2" d="M177,307.31c.31.23.6.48.89.74A10.58,10.58,0,0,0,177,307.31Z"/></g></g></g></svg>