<svg xmlns="http://www.w3.org/2000/svg" viewBox="0 0 272.64 271.19"><defs><style>.cls-1{fill:#fff;}</style></defs><title>sm1</title><g id="Layer_2" data-name="Layer 2"><g id="_2nd_Home" data-name="2nd Home"><path class="cls-1" d="M138.89,271c-23.55.74-43.29-4.79-62.5-13.74A130,130,0,0,1,40.28,232c-17-16.67-29.5-36.68-35.55-59.73A148.39,148.39,0,0,1,2.4,108.34C5.11,92.88,11,79.15,19,66,38.14,34.49,65.09,13.58,101.17,4.4A138,138,0,0,1,176.05,6c11.48,3.41,21.78,8.59,32.09,14.44a117.74,117.74,0,0,1,26.75,21.31c7.7,8,13.89,17.69,19.67,27.29a121.74,121.74,0,0,1,12.24,26.1c6.81,21.81,7.2,44.23,3.53,66.72-3.39,20.83-12.64,39.12-25.11,55.79-11.24,15-25,27.63-41.68,36.29C182.7,264.8,160.76,272.59,138.89,271ZM117.25,143.76v85.37h34.57c0-2.52,0-4.65,0-6.78-.07-24.47,0-48.95-.28-73.42,0-4.12,1.16-5.55,5.35-5.35,6.48.31,13,.17,19.48,0,1.33,0,3.66-1.1,3.8-2,1.65-10.27,3-20.59,4.49-31.63H151.45c0-7.58-.13-14.53,0-21.47.25-11.81,3.19-14.77,14.89-15,6.26-.15,12.54,0,18.87,0v-31c-12.63,0-25.14-1.61-37,.41C133.33,45.36,122,54.3,119,70.36c-1.44,7.78-1.77,15.79-2.27,23.72-.33,5.1-.06,10.24-.06,16h-29v33.68Z"/><path d="M117.25,143.76H87.74V110.08h29c0-5.76-.27-10.9.06-16,.5-7.93.83-15.94,2.27-23.72,3-16.06,14.3-25,29.18-27.53,11.89-2,24.4-.41,37-.41v31c-6.33,0-12.61-.12-18.87,0-11.7.27-14.64,3.23-14.89,15-.16,6.94,0,13.89,0,21.47h33.21c-1.51,11-2.84,21.36-4.49,31.63-.14.87-2.47,1.92-3.8,2-6.49.21-13,.35-19.48,0-4.19-.2-5.39,1.23-5.35,5.35.23,24.47.21,48.95.28,73.42,0,2.13,0,4.26,0,6.78H117.25Z"/></g></g></svg>