<svg xmlns="http://www.w3.org/2000/svg" viewBox="0 0 273.34 271.45"><defs><style>.cls-1{fill:#fff;}</style></defs><title>sm2</title><g id="Layer_2" data-name="Layer 2"><g id="_2nd_Home" data-name="2nd Home"><path class="cls-1" d="M136.58,0c75.35-.2,136.36,60.52,136.75,135,.41,76-60.42,137.69-139.19,136.48C59.82,270.28-.08,210.66,0,134.81.07,61,61.4-.47,136.58,0Zm-.12,225.29,0-.71c6.5,0,13,.32,19.49-.07,10.94-.66,22-1,32.75-2.91a40.54,40.54,0,0,0,24.19-13.89,53.66,53.66,0,0,0,12.53-34.55c.18-25.31.46-50.64-.32-75.93a60.93,60.93,0,0,0-6-23.44c-6.35-13.46-17-22.65-32.49-24.09-13.22-1.22-26.53-2.14-39.8-2.17-18.79-.05-37.6.63-56.39,1.39-23.81.95-42.15,24.37-42.12,46,0,26.46.17,52.92-.08,79.37C48,198,63.89,219.17,89.14,222.55,104.76,224.63,120.68,224.45,136.46,225.29Z"/><path d="M136.46,225.29c-15.78-.84-31.7-.66-47.32-2.74C63.89,219.17,48,198,48.25,174.24c.25-26.45.11-52.91.08-79.37,0-21.58,18.31-45,42.12-45.95,18.79-.76,37.6-1.44,56.39-1.39,13.27,0,26.58.95,39.8,2.17,15.48,1.44,26.14,10.63,32.49,24.09a60.93,60.93,0,0,1,6,23.44c.78,25.29.5,50.62.32,75.93a53.66,53.66,0,0,1-12.53,34.55,40.54,40.54,0,0,1-24.19,13.89c-10.76,1.9-21.81,2.25-32.75,2.91-6.47.39-13,.07-19.49.07Zm.19-16.24,0-1.38c12.48,0,25,.27,37.44-.09,8.38-.24,16.45-2.13,23.28-7.61,8.67-7,11.21-16.65,11.87-27,.57-8.79.7-17.64.58-26.45-.24-17.81-.15-35.65-1.41-53.38-1.07-15-11.27-25-26-27.81a45.15,45.15,0,0,0-7.91-1c-24.12-.2-48.25-.61-72.36-.23C95,64.24,87.24,65.3,80.9,68.34,69,74.08,64.5,85.21,64.45,98.08c-.09,25.44-.17,50.89,0,76.33.11,17.84,10.85,30.14,28.38,32.26C107.32,208.42,122,208.33,136.65,209.05Z"/><path class="cls-1" d="M136.65,209.05c-14.62-.72-29.33-.63-43.83-2.38-17.53-2.12-28.27-14.42-28.38-32.26-.16-25.44-.08-50.89,0-76.33,0-12.87,4.53-24,16.45-29.74,6.34-3,14.12-4.1,21.28-4.22,24.11-.38,48.24,0,72.36.23a45.15,45.15,0,0,1,7.91,1c14.72,2.82,24.92,12.81,26,27.81,1.26,17.73,1.17,35.57,1.41,53.38.12,8.81,0,17.66-.58,26.45-.66,10.34-3.2,20-11.87,27-6.83,5.48-14.9,7.37-23.28,7.61-12.47.36-25,.09-37.44.09Zm1.72-27.63c23.55.18,45.26-21.92,44.06-47.58-1.32-28.51-25.81-44.57-47.13-43.55C108.4,91.58,90,112.58,91.13,137.6,92.29,163.86,113.8,182.82,138.37,181.42Zm45.51-82.3c6.7.06,11.55-4.52,11.54-10.9,0-5.13-5.81-10.42-11.39-10.38-5,0-10.35,5.31-10.39,10.18C173.59,94.32,178,99.06,183.88,99.12Z"/><path d="M138.37,181.42c-24.57,1.4-46.08-17.56-47.24-43.82-1.11-25,17.27-46,44.17-47.31,21.32-1,45.81,15,47.13,43.55C183.63,159.5,161.92,181.6,138.37,181.42Zm27.47-44.6c1.82-18.62-15.2-30.08-28.74-30.59-15.37-.59-29.92,12.91-30.12,28.68-.18,14.3,11,29.9,28.79,30.46C151.82,165.87,167,152,165.84,136.82Z"/><path d="M183.88,99.12c-5.91-.06-10.29-4.8-10.24-11.1,0-4.87,5.42-10.15,10.39-10.18,5.58,0,11.38,5.25,11.39,10.38C195.43,94.6,190.58,99.18,183.88,99.12Z"/><path class="cls-1" d="M165.84,136.82c1.16,15.16-14,29.05-30.07,28.55-17.77-.56-29-16.16-28.79-30.46.2-15.77,14.75-29.27,30.12-28.68C150.64,106.74,167.66,118.2,165.84,136.82Z"/></g></g></svg>