<svg xmlns="http://www.w3.org/2000/svg" viewBox="0 0 273.04 272.54"><defs><style>.cls-1{fill:#fff;}</style></defs><title>sm3</title><g id="Layer_2" data-name="Layer 2"><g id="_2nd_Home" data-name="2nd Home"><path class="cls-1" d="M273,135.31c.93,77.47-64,139.1-140.67,137.18C57.71,270.62-.71,210.76,0,134.37.71,60,63.73-1.8,140.46,0,213.09,1.79,274.11,62.77,273,135.31ZM137.72,71.42c-21.17.74-41.82,1.16-62.42,2.37a37.35,37.35,0,0,0-16.38,4.93C50.05,84,48.27,93.8,47.51,103.07c-1.19,14.58-1.93,29.26-1.67,43.88a192.34,192.34,0,0,0,3.68,33.13c1.62,8.3,6.71,15,15.8,16.78a122.45,122.45,0,0,0,18.78,2.32c12.81.49,25.64.72,38.46.57,25.64-.29,51.28-.63,76.9-1.5,13.4-.45,20.22-6.39,24.09-19.19a38.53,38.53,0,0,0,1.87-9.27c.74-16.28,1.67-32.58,1.65-48.87a131,131,0,0,0-2.89-26.24c-2.86-14-10.77-20.34-25.09-21C178.47,72.78,157.84,72.16,137.72,71.42Z"/><path d="M137.72,71.42c20.12.74,40.75,1.36,61.37,2.28,14.32.64,22.23,7,25.09,21a131,131,0,0,1,2.89,26.24c0,16.29-.91,32.59-1.65,48.87a38.53,38.53,0,0,1-1.87,9.27c-3.87,12.8-10.69,18.74-24.09,19.19-25.62.87-51.26,1.21-76.9,1.5-12.82.15-25.65-.08-38.46-.57a122.45,122.45,0,0,1-18.78-2.32c-9.09-1.77-14.18-8.48-15.8-16.78A192.34,192.34,0,0,1,45.84,147c-.26-14.62.48-29.3,1.67-43.88C48.27,93.8,50.05,84,58.92,78.72A37.35,37.35,0,0,1,75.3,73.79C95.9,72.58,116.55,72.16,137.72,71.42ZM165.56,135l-47.24-24.42v50.15C134.16,152.07,149.43,143.76,165.56,135Z"/><path class="cls-1" d="M165.56,135c-16.13,8.78-31.4,17.09-47.24,25.73V110.56Z"/></g></g></svg>